<?xml version="1.0" encoding="UTF-8"?>
<svg version="1.1" xmlns="http://www.w3.org/2000/svg" width="1163" height="319">
<path d="M0 0 C383.79 0 767.58 0 1163 0 C1163 105.27 1163 210.54 1163 319 C779.21 319 395.42 319 0 319 C0 213.73 0 108.46 0 0 Z " fill="#FEFEFE" transform="translate(0,0)"/>
<path d="M0 0 C10.89 0 21.78 0 33 0 C33.029729 5.57165039 33.029729 5.57165039 33.06005859 11.25585938 C33.12698903 23.53339453 33.20452974 35.81084349 33.28752708 48.08827972 C33.33758565 55.53148863 33.38402916 62.9746869 33.421875 70.41796875 C33.45488209 76.9077735 33.49476105 83.397494 33.54279006 89.8872056 C33.56796869 93.32142148 33.5897751 96.7555821 33.60334396 100.18986511 C33.62024497 104.02969398 33.64929035 107.86925452 33.68115234 111.70898438 C33.68331253 112.83971375 33.68547272 113.97044312 33.68769836 115.13543701 C33.80951134 126.64025216 36.35355693 137.46201329 44.078125 146.40625 C53.92306587 155.6315792 64.27629225 157.57728171 77.3671875 157.34375 C83.59922981 157.03912879 88.62355362 155.10877344 94 152 C95.13695312 151.34837891 95.13695312 151.34837891 96.296875 150.68359375 C103.90638 145.66303688 108.81706722 136.76314023 111 128 C112.02329769 121.34105908 112.16989409 114.80622418 112.20532227 108.07617188 C112.21522186 106.9045752 112.22512146 105.73297852 112.23532104 104.52587891 C112.26677651 100.67352279 112.29163017 96.82115437 112.31640625 92.96875 C112.33698957 90.28975011 112.35794044 87.61075561 112.37937927 84.9317627 C112.4291359 78.61384451 112.47413732 72.29590189 112.51740164 65.97793627 C112.56692031 58.78076095 112.62178381 51.58362942 112.67708123 44.38649654 C112.79063957 29.5910382 112.89682934 14.79553475 113 0 C123.56 0 134.12 0 145 0 C145.04531834 14.9958392 145.08208835 29.99164283 145.10362434 44.98753452 C145.11389401 51.95191988 145.12787086 58.91625935 145.15087891 65.88061523 C145.17310297 72.61093203 145.18459397 79.3411915 145.18975449 86.07154655 C145.19342865 88.62974735 145.20060294 91.18794578 145.21146011 93.74612617 C145.32398619 121.3772055 143.49638812 148.79807978 124.41015625 170.6015625 C108.96042957 185.97616895 89.61412248 190.29889513 68.57446289 190.31469727 C49.80537202 190.05178998 34.27253544 183.41348272 21 170 C20.36449219 169.39800781 19.72898438 168.79601562 19.07421875 168.17578125 C13.21388311 162.18550469 10.14880289 154.63333738 7 147 C6.39478516 145.56527344 6.39478516 145.56527344 5.77734375 144.1015625 C-1.0255157 126.04682524 -0.41866369 105.9822124 -0.29296875 87.01171875 C-0.2873575 84.48582718 -0.28309466 81.95993229 -0.28010559 79.43403625 C-0.2687771 72.85992042 -0.23941636 66.28601076 -0.20599365 59.7119751 C-0.17657382 53.63896117 -0.1644611 47.56590149 -0.15097082 41.4928354 C-0.11986364 27.6617781 -0.06499031 13.83093748 0 0 Z " fill="#B53B53" transform="translate(222,34)"/>
<path d="M0 0 C1.18932129 0.00491455 2.37864258 0.0098291 3.60400391 0.01489258 C25.10812304 0.30120305 43.7191243 6.70659103 59.75 21.3125 C58.50256064 23.8346286 57.25212931 26.35520078 56 28.875 C55.65195313 29.57947266 55.30390625 30.28394531 54.9453125 31.00976562 C52.69162392 35.53801026 50.29907588 39.9434758 47.75 44.3125 C43.63749556 42.40278529 40.14552132 39.80942636 36.48046875 37.1640625 C20.98860711 26.65885161 3.20711138 25.49219773 -15.00390625 27.78515625 C-22.7276668 29.43249726 -30.12527424 32.86021516 -34.75 39.5 C-37.72232928 45.0731174 -37.72187403 50.11581458 -37.25 56.3125 C-35.49460454 61.7852035 -32.01289459 65.25558765 -27.25 68.3125 C-23.6606191 69.92284158 -19.9991292 71.13186163 -16.25 72.3125 C-15.25105713 72.66477661 -15.25105713 72.66477661 -14.23193359 73.02416992 C-8.75182773 74.94058848 -3.32900673 76.20353717 2.375 77.25 C25.76791226 81.79994086 47.47767966 87.86190334 62.75 107.3125 C69.12068964 116.86853447 69.06744222 131.89425521 67.125 142.875 C63.13852412 157.88614366 52.84031271 169.4011457 39.86328125 177.48828125 C21.3307673 187.55100895 -1.96412054 188.62758927 -22.25 184.3125 C-23.42820313 184.06757813 -24.60640625 183.82265625 -25.8203125 183.5703125 C-41.93436265 179.76887687 -54.81408955 172.0786938 -67.25 161.3125 C-68.21486328 160.59513672 -68.21486328 160.59513672 -69.19921875 159.86328125 C-70.25 158.3125 -70.25 158.3125 -70.28515625 155.7421875 C-68.81143516 150.85944366 -66.31149533 146.78789425 -63.6875 142.4375 C-63.16736328 141.55835938 -62.64722656 140.67921875 -62.11132812 139.7734375 C-60.83249688 137.6146765 -59.54527161 135.46142274 -58.25 133.3125 C-57.82154785 133.68761719 -57.3930957 134.06273437 -56.95166016 134.44921875 C-39.59576817 149.50584616 -20.15588266 160.38308656 3.46875 159.5703125 C15.63665507 158.61426282 27.01281728 156.04968272 35.9375 147.125 C39.92746964 140.93366781 41.46860992 134.61836752 40.75 127.3125 C37.64899758 118.98875665 31.41217914 115.00511645 23.75 111.3125 C22.8940625 110.9 22.038125 110.4875 21.15625 110.0625 C11.72068183 106.00419111 1.83105435 104.41145303 -8.20703125 102.484375 C-28.06431204 98.66578522 -47.5431394 92.35038891 -59.7421875 75.23046875 C-63.62956516 67.7074866 -64.78570177 60.26777168 -64.6875 51.875 C-64.67920166 50.95412598 -64.67090332 50.03325195 -64.66235352 49.08447266 C-64.4907211 42.17886362 -63.61061228 36.43892592 -60.25 30.3125 C-59.48623047 28.90097656 -59.48623047 28.90097656 -58.70703125 27.4609375 C-55.06168577 21.27135776 -51.02826194 16.56780918 -45.25 12.3125 C-44.64671875 11.86390625 -44.0434375 11.4153125 -43.421875 10.953125 C-30.37595485 2.07312893 -15.40990678 -0.07537811 0 0 Z " fill="#A91459" transform="translate(128.25,34.6875)"/>
<path d="M0 0 C5.8612067 4.86590745 11.25289387 10.10271212 16.625 15.5 C17.45773437 16.32886719 18.29046875 17.15773438 19.1484375 18.01171875 C23.32684613 22.19678089 27.25542416 26.42767581 31 31 C32.65363653 32.67959572 34.32268687 34.34404825 36 36 C37.01543866 37.00474302 38.03081679 38.00954722 39.04614258 39.0144043 C39.58632523 39.54813156 40.12650787 40.08185883 40.68305969 40.63175964 C43.09662137 43.01850947 45.50482663 45.41063441 47.9128418 47.80297852 C49.18647901 49.06646722 50.46189176 50.32816847 51.73901367 51.58813477 C53.58719248 53.4121853 55.42895096 55.24250523 57.26953125 57.07421875 C57.84443802 57.63880295 58.41934479 58.20338715 59.01167297 58.78507996 C60.37959931 60.15261225 61.69539653 61.57193248 63 63 C63 63.66 63 64.32 63 65 C63.88799538 65.38144669 63.88799538 65.38144669 64.79393005 65.77059937 C67.23858337 67.13295795 68.52520476 68.51713518 70.29711914 70.67041016 C73.75685685 74.75505519 77.42788938 78.52564721 81.24609375 82.2734375 C82.5906205 83.60534186 83.93501799 84.93737672 85.27929688 86.26953125 C87.37339655 88.33863931 89.46908677 90.40609068 91.56713867 92.47119141 C93.61026514 94.48430318 95.64728047 96.50343772 97.68359375 98.5234375 C98.31784775 99.14423187 98.95210175 99.76502625 99.60557556 100.40463257 C101.10863494 101.8989061 102.55996673 103.44489709 104 105 C104 105.66 104 106.32 104 107 C104.89332031 107.38671875 104.89332031 107.38671875 105.8046875 107.78125 C108.1947437 109.10811394 109.40503112 110.39109343 111.125 112.5 C115.49016695 117.56922614 120.26968626 122.26968626 125 127 C125.33 86.08 125.66 45.16 126 3 C134.58 3 143.16 3 152 3 C152 64.71 152 126.42 152 190 C146.61334593 185.38286794 141.56384344 180.74676764 136.5625 175.75 C135.83095703 175.03070313 135.09941406 174.31140625 134.34570312 173.5703125 C133.65541016 172.88195312 132.96511719 172.19359375 132.25390625 171.484375 C131.31526733 170.55189941 131.31526733 170.55189941 130.35766602 169.60058594 C129 168 129 168 129 166 C128.01 165.67 127.02 165.34 126 165 C124.5703125 163.546875 124.5703125 163.546875 123.125 161.75 C120.59983788 158.63149377 117.84526258 155.8222543 115 153 C113.79673282 151.80230754 112.59361974 150.60446024 111.390625 149.40649414 C110.72643555 148.74553238 110.06224609 148.08457062 109.37792969 147.40357971 C106.37382331 144.41289376 103.37239618 141.41952493 100.37109375 138.42602539 C98.79125951 136.85123386 97.21053084 135.27733911 95.62890625 133.7043457 C93.33355053 131.42116377 91.04147892 129.13472824 88.75 126.84765625 C88.0477832 126.15060074 87.34556641 125.45354523 86.62207031 124.73536682 C82.85719463 120.97091928 79.36177942 117.12715354 76 113 C74.29036278 111.40118692 74.29036278 111.40118692 72.625 110.125 C70.05411176 108.00666529 67.86756738 105.79075651 65.71533203 103.25048828 C62.28218069 99.27705855 58.66694646 95.55313427 54.9296875 91.8671875 C54.28556915 91.22685577 53.64145081 90.58652405 52.97781372 89.92678833 C50.94599096 87.9070405 48.91093125 85.89060581 46.875 83.875 C44.18194042 81.20868634 41.49231868 78.53897165 38.8046875 75.8671875 C38.19623993 75.26703827 37.58779236 74.66688904 36.96090698 74.04855347 C34.3117949 71.41458999 31.75564625 68.77424573 29.38720703 65.88330078 C25.56240194 61.26364972 21.5005511 57.53765705 16.69921875 53.96484375 C-0.02800168 40.41168986 -0.02800168 40.41168986 -1.28855896 29.01997375 C-1.88645304 19.33065155 -1.13691562 9.62482551 0 0 Z " fill="#C0611B" transform="translate(697,33)"/>
<path d="M0 0 C2.4173871 2.18372353 3.71754435 4.16283063 5.015625 7.140625 C5.37567627 7.9555542 5.73572754 8.7704834 6.10668945 9.61010742 C6.48398193 10.48127197 6.86127441 11.35243652 7.25 12.25 C8.06044324 14.08496892 8.87164624 15.91960245 9.68359375 17.75390625 C10.08046387 18.65512207 10.47733398 19.55633789 10.88623047 20.48486328 C14.76947432 29.25408251 18.9423296 37.89037763 23.10400391 46.52978516 C29.64000201 60.09906275 36.01871318 73.73581971 42.33691406 87.40771484 C44.02881701 91.06224508 45.72788194 94.71335655 47.4296875 98.36328125 C52.4810867 109.20190522 57.50710242 120.0459874 62.33422852 130.98657227 C66.37465349 140.1365381 70.6244722 149.18179157 75 158.17578125 C75.53463867 159.27849365 76.06927734 160.38120605 76.62011719 161.51733398 C77.6835384 163.70805176 78.75168365 165.89648451 79.82519531 168.08227539 C80.32116211 169.10442139 80.81712891 170.12656738 81.328125 171.1796875 C81.99183105 172.53682861 81.99183105 172.53682861 82.66894531 173.92138672 C84.36636351 177.84736681 85.64742659 181.94227978 87 186 C77.76 186 68.52 186 59 186 C52.2585034 172.5170068 52.2585034 172.5170068 50.1328125 167.71484375 C49.64796387 166.62518311 49.16311523 165.53552246 48.66357422 164.4128418 C48.15584473 163.265979 47.64811523 162.11911621 47.125 160.9375 C45.98649021 158.37926283 44.84516473 155.82228806 43.703125 153.265625 C43.4065097 152.6013298 43.10989441 151.93703461 42.80429077 151.25260925 C39.20766234 143.20973389 35.54248802 135.19824889 31.875 127.1875 C31.36329254 126.06926346 31.36329254 126.06926346 30.84124756 124.92843628 C27.55482253 117.74723802 24.26311737 110.56850037 20.9609375 103.39453125 C14.17869958 88.652459 7.55919904 73.84241193 1 59 C-1.73612137 61.73612137 -2.92136935 65.01186991 -4.44921875 68.5078125 C-4.78492386 69.26609344 -5.12062897 70.02437439 -5.46650696 70.80563354 C-6.54453073 73.2435243 -7.61606731 75.68420642 -8.6875 78.125 C-9.3895549 79.71502884 -10.0920247 81.30487457 -10.79492188 82.89453125 C-13.53924751 89.10746449 -16.27341298 95.32472606 -18.98168945 101.5534668 C-19.29592361 102.27521088 -19.61015778 102.99695496 -19.93391418 103.74057007 C-20.51972358 105.08718403 -21.10413498 106.43440745 -21.68681335 107.78237915 C-23.27877256 111.44208972 -24.97781224 115.01853787 -26.8125 118.5625 C-30.28616396 125.3515108 -33.24223798 132.36109382 -36.22192383 139.37719727 C-38.32612855 144.29602409 -40.5288303 149.12245962 -42.94921875 153.89453125 C-46.15572832 160.22027748 -48.99996491 166.67893115 -51.8125 173.1875 C-52.77524246 175.41106723 -53.73997262 177.63377528 -54.70703125 179.85546875 C-55.1244458 180.82121826 -55.54186035 181.78696777 -55.97192383 182.78198242 C-57 185 -57 185 -58 186 C-60.07262076 186.08767112 -62.14820294 186.10695873 -64.22265625 186.09765625 C-65.48271484 186.09443359 -66.74277344 186.09121094 -68.04101562 186.08789062 C-69.38151109 186.07953403 -70.72200588 186.07106907 -72.0625 186.0625 C-73.40689942 186.0574866 -74.7513006 186.05292342 -76.09570312 186.04882812 C-79.39717941 186.03699488 -82.69856803 186.02050971 -86 186 C-84.45496652 180.98000343 -82.4031836 176.33134463 -80.18359375 171.5859375 C-79.81100433 170.78233292 -79.43841492 169.97872833 -79.05453491 169.15077209 C-77.85166405 166.55753406 -76.64458357 163.96627941 -75.4375 161.375 C-73.7926822 157.83276724 -72.15008233 154.28950841 -70.5078125 150.74609375 C-69.90937279 149.45588066 -69.90937279 149.45588066 -69.29884338 148.13960266 C-66.10305457 141.24230706 -62.95671314 134.32393691 -59.90209961 127.36279297 C-57.96239267 122.9854405 -55.85917788 118.71085447 -53.69921875 114.4375 C-49.90189968 106.9137721 -46.43397148 99.25731724 -43 91.5625 C-36.65449223 77.38248557 -30.13814721 63.29916882 -23.375 49.3125 C-18.26801779 38.71862993 -13.28774784 28.07011628 -8.36474609 17.38989258 C-5.66605533 11.54386113 -2.9216995 5.73804925 0 0 Z " fill="#D47126" transform="translate(586,33)"/>
<path d="M0 0 C26.27423592 -2.51243153 26.27423592 -2.51243153 33.46875 1.3125 C37.32026983 4.77886785 39.60352426 9.11593448 41.84472656 13.73339844 C43.73897567 17.44984153 46.20237558 20.73997453 48.625 24.125 C49.53986564 25.46121516 50.4513703 26.79973815 51.359375 28.140625 C56.4347987 35.58704955 61.73396688 42.87674391 67.0234375 50.171875 C74.55948782 60.56957052 81.96300757 71.05222244 89.31103516 81.58349609 C98.11533195 94.18033472 106.9974736 106.72600782 116.01953125 119.16796875 C122.96294763 128.74516803 129.8019971 138.38811869 136.5703125 148.08984375 C139.84266828 152.78009705 143.13673756 157.45471114 146.4375 162.125 C146.92903564 162.82189941 147.42057129 163.51879883 147.92700195 164.23681641 C150.04159381 167.23432535 152.16241386 170.22638672 154.30078125 173.20703125 C155.26564453 174.55861328 155.26564453 174.55861328 156.25 175.9375 C157.06210938 177.06478516 157.06210938 177.06478516 157.890625 178.21484375 C159 180 159 180 159 182 C132.74246021 184.17103046 132.74246021 184.17103046 125.80810547 180.99658203 C122.5108537 178.18524105 120.90123495 174.272197 119.19140625 170.39306641 C116.73148627 165.45205501 113.27476854 161.09655708 110.0625 156.625 C108.67313217 154.63295829 107.28765804 152.63819476 105.90625 150.640625 C105.24109375 149.68091797 104.5759375 148.72121094 103.890625 147.73242188 C100.40470159 142.69439827 96.9340427 137.6459772 93.46875 132.59375 C90.32092269 128.00606478 87.14731858 123.43632767 83.97265625 118.8671875 C82.57253806 116.83216423 81.20883148 114.77187418 79.87109375 112.6953125 C78.27659534 109.93841856 78.27659534 109.93841856 76 109 C75.67322266 109.99580078 75.67322266 109.99580078 75.33984375 111.01171875 C73.55612373 114.98998643 71.11603743 118.29340999 68.5625 121.8125 C67.47567781 123.33009599 66.38976153 124.8483411 65.3046875 126.3671875 C64.75393555 127.13643555 64.20318359 127.90568359 63.63574219 128.69824219 C61.11179426 132.2498513 58.64740286 135.84136245 56.1875 139.4375 C52.73103285 144.48266524 49.25555045 149.51254041 45.73828125 154.515625 C42.97003741 158.47203642 40.23839237 162.45380086 37.50390625 166.43359375 C37.11605957 166.96283447 36.72821289 167.4920752 36.32861328 168.03735352 C34.88520777 170.09409343 34.88520777 170.09409343 33.49560547 172.83569336 C31.56887789 176.11567367 29.88599977 178.50753345 27 181 C21.59445741 182.34366876 16.51777541 182.05247198 11 181.6875 C9.54315427 181.63224033 8.08610635 181.5820645 6.62890625 181.53710938 C3.08169182 181.41668975 -0.45784821 181.22742803 -4 181 C1.12017761 170.44830174 8.90231123 160.89596897 15.75 151.375 C19.7520622 145.80718824 23.64048798 140.16740944 27.5 134.5 C32.89163911 126.58571779 38.40048112 118.76801498 44 111 C49.45745897 103.41484877 54.90161277 95.83410721 60 88 C55.93884272 81.41070507 51.64780152 75.02913092 47.11572266 68.75732422 C43.49258511 63.72811244 39.98682316 58.62444211 36.5 53.5 C31.49501604 46.15259895 26.4001291 38.88089952 21.20166016 31.66943359 C18.71355281 28.2127741 16.24236877 24.74395696 13.77124023 21.27514648 C11.57796842 18.19882963 9.37215102 15.13252743 7.1484375 12.078125 C6.684375 11.43746094 6.2203125 10.79679687 5.7421875 10.13671875 C4.84758146 8.90216241 3.94928186 7.67027206 3.046875 6.44140625 C0 2.2249244 0 2.2249244 0 0 Z " fill="#9C4113" transform="translate(946,37)"/>
<path d="M0 0 C8.58 0 17.16 0 26 0 C26.09068421 16.37826649 26.1642035 32.75631496 26.20724869 49.13476372 C26.22777645 56.74146459 26.25570687 64.34799712 26.30175781 71.95458984 C26.3419285 78.59312413 26.36750369 85.23153636 26.37635398 91.87018883 C26.38151828 95.37754014 26.39344482 98.88454262 26.42292023 102.39178085 C26.61021645 125.61571593 26.06762106 149.9977235 9 168 C-4.00048498 180.14245297 -19.80740597 184.45961331 -37.21484375 184.2734375 C-49.80073154 183.36424024 -61.81708135 178.74130998 -71.3125 170.3125 C-73 168 -73 168 -72.74829102 166.12597656 C-71.93419275 163.8130344 -70.91994985 161.80750606 -69.71484375 159.671875 C-69.04291992 158.47304688 -69.04291992 158.47304688 -68.35742188 157.25 C-67.88884766 156.425 -67.42027344 155.6 -66.9375 154.75 C-66.46505859 153.90953125 -65.99261719 153.0690625 -65.50585938 152.203125 C-64.34142039 150.13301124 -63.1726855 148.06544986 -62 146 C-58.27870632 146 -57.89515511 146.7822314 -55.3125 149.3125 C-48.60788718 155.42443986 -40.6346686 157.33284855 -31.71875 157.21484375 C-24.20647875 156.62120163 -16.73382475 153.96931478 -11 149 C-1.55594186 137.79990384 -0.86632687 125.7853128 -0.79467773 111.70898438 C-0.78477814 110.49837341 -0.77487854 109.28776245 -0.76467896 108.04046631 C-0.7386283 104.74353673 -0.71671041 101.44661166 -0.69667697 98.14964104 C-0.67469651 94.69564177 -0.64736725 91.24168478 -0.62062073 87.78771973 C-0.57085592 81.257305 -0.52585748 74.7268666 -0.48259836 68.19640589 C-0.43308675 60.75739808 -0.3782206 53.31843272 -0.32291877 45.87946606 C-0.20934784 30.58634855 -0.10316204 15.2931918 0 0 Z " fill="#C65843" transform="translate(459,37)"/>
<path d="M0 0 C10.23 0 20.46 0 31 0 C31 61.71 31 123.42 31 187 C20.77 187 10.54 187 0 187 C0 125.29 0 63.58 0 0 Z " fill="#B3551A" transform="translate(887,35)"/>
<path d="M0 0 C0.99 0.495 0.99 0.495 2 1 C2 1.66 2 2.32 2 3 C2.99 3.33 3.98 3.66 5 4 C6.4296875 5.453125 6.4296875 5.453125 7.875 7.25 C11.09543635 11.22715091 14.43128982 14.90171257 18.64144897 17.84933472 C22.5358941 20.82450409 25.39427347 23.48398552 26.55316925 28.2977066 C27.43157889 35.34040469 27.14588606 42.42907962 26.9765625 49.5078125 C26.95789077 51.80277413 26.94366584 54.09777586 26.9336853 56.39279175 C26.89566412 62.40750903 26.79757644 68.41977727 26.68664551 74.43353271 C26.58399696 80.58035151 26.53860177 86.72756954 26.48828125 92.875 C26.38131658 104.91791099 26.20555336 116.95836787 26 129 C17.42 129 8.84 129 0 129 C0 86.43 0 43.86 0 0 Z " fill="#CC6A1C" transform="translate(697,90)"/>
<path d="M0 0 C0.78503906 0.66515625 1.57007813 1.3303125 2.37890625 2.015625 C4.52377646 3.88832648 4.52377646 3.88832648 7.4375 5.75 C6.01827881 9.4393862 4.3922487 12.95704248 2.6171875 16.48828125 C2.08222656 17.55498047 1.54726562 18.62167969 0.99609375 19.72070312 C0.44050781 20.82349609 -0.11507812 21.92628906 -0.6875 23.0625 C-1.53248047 24.74569336 -1.53248047 24.74569336 -2.39453125 26.46289062 C-3.78205157 29.22617262 -5.17143378 31.98850182 -6.5625 34.75 C-10.4009802 34.75 -10.87901776 33.75915352 -13.5625 31.125 C-26.39982874 19.42280483 -42.06374027 14.77853903 -59.09765625 15.4609375 C-69.71712979 16.08416183 -79.34385835 17.2637357 -87 25.3125 C-90.57401941 30.88797029 -91.39125249 35.1304706 -90.5625 41.75 C-87.01547419 49.26969471 -80.86511664 52.47168404 -73.375 55.1875 C-66.01947859 57.62625462 -58.45696713 59.07762868 -50.875 60.625 C-29.14605622 65.08433051 -5.47111198 71.07902036 7.875 90.375 C13.07340867 98.80405812 14.61737513 106.26453794 14.625 116.0625 C14.63724609 116.87912109 14.64949219 117.69574219 14.66210938 118.53710938 C14.69637212 132.87035932 8.49380017 145.53342068 -1.25 155.875 C-18.4652413 172.18417597 -41.51373195 175.59893901 -64.34765625 175.12109375 C-84.60061637 174.23861867 -103.94268543 166.60016694 -119.5625 153.75 C-120.43132812 153.05519531 -121.30015625 152.36039063 -122.1953125 151.64453125 C-129.09541738 145.88002356 -129.09541738 145.88002356 -129.5625 140.75 C-128.63793945 138.22631836 -128.63793945 138.22631836 -127.17578125 135.58984375 C-126.64919922 134.63142578 -126.12261719 133.67300781 -125.58007812 132.68554688 C-125.01740234 131.69619141 -124.45472656 130.70683594 -123.875 129.6875 C-123.05999023 128.19766602 -123.05999023 128.19766602 -122.22851562 126.67773438 C-119.69179212 122.12267463 -117.4036497 118.32888796 -113.5625 114.75 C-113.06363281 115.29527344 -112.56476563 115.84054688 -112.05078125 116.40234375 C-97.82312802 131.34521115 -79.66594394 141.35371008 -58.8581543 142.07983398 C-45.94171378 142.31477072 -32.55527527 140.78552343 -22.5625 131.75 C-18.61250887 126.56563664 -18.01629786 120.96516082 -18.1015625 114.5703125 C-18.92099687 109.55648526 -21.67551953 106.82719287 -25.5625 103.75 C-36.13503554 96.55041889 -50.12285783 94.12700284 -62.5 91.8125 C-82.08512749 88.09447281 -103.72362829 81.61674305 -116.25 65.125 C-124.20607934 53.02960911 -125.58152658 39.34690281 -122.90234375 25.28515625 C-118.10633546 9.48531943 -108.82405756 -1.38737814 -94.5625 -9.25 C-65.54073309 -23.13794149 -25.48326633 -20.41620176 0 0 Z M-102.5625 -1.25 C-103.17867187 -0.81042969 -103.79484375 -0.37085938 -104.4296875 0.08203125 C-109.90212029 4.30188498 -113.27692956 9.74000852 -116.5625 15.75 C-117.00078125 16.54792969 -117.4390625 17.34585938 -117.890625 18.16796875 C-120.71432283 24.42186289 -120.93911608 30.55615766 -121 37.3125 C-121.01023193 38.18696777 -121.02046387 39.06143555 -121.03100586 39.96240234 C-120.87799895 51.37479207 -117.38095683 60.36871216 -109.5625 68.75 C-98.29628272 78.12640018 -85.98980563 83.01998408 -71.8125 86.375 C-70.5762085 86.67712402 -69.33991699 86.97924805 -68.06616211 87.29052734 C-61.77526582 88.81120324 -55.48966576 90.20448676 -49.125 91.375 C-38.37424733 93.41565213 -26.89605672 97.13572977 -19.1875 105.25 C-15.90047316 110.30696438 -14.75760123 114.71835355 -15.5625 120.75 C-17.10635552 127.25822925 -19.1064616 132.47439308 -24.5703125 136.54296875 C-28.08747088 138.67395294 -31.72430963 140.28951212 -35.5625 141.75 C-36.573125 142.141875 -37.58375 142.53375 -38.625 142.9375 C-42.27440519 143.94690995 -45.79869035 144.48289093 -49.5625 144.75 C-50.52671875 144.82734375 -51.4909375 144.9046875 -52.484375 144.984375 C-74.17597955 145.90092167 -93.11897023 137.32181883 -108.953125 123.0703125 C-111.52733697 120.67350087 -111.52733697 120.67350087 -114.5625 118.75 C-115.17738281 119.84699219 -115.79226562 120.94398438 -116.42578125 122.07421875 C-117.24214917 123.52866735 -118.05855756 124.98309323 -118.875 126.4375 C-119.27912109 127.15873047 -119.68324219 127.87996094 -120.09960938 128.62304688 C-120.49599609 129.32880859 -120.89238281 130.03457031 -121.30078125 130.76171875 C-121.68572754 131.45313965 -122.07067383 132.14456055 -122.46728516 132.85693359 C-123.37954366 134.43376205 -124.38803876 135.9544176 -125.41796875 137.45703125 C-126.76557 139.70646916 -126.76557 139.70646916 -126.4921875 142.3203125 C-123.41732554 150.35629629 -112.64940469 155.63940138 -105.5625 159.75 C-104.22638672 160.53890625 -104.22638672 160.53890625 -102.86328125 161.34375 C-81.57921414 172.98022742 -54.79591106 174.77616599 -31.5625 168.75 C-16.54572237 164.17457556 -2.64123273 155.75889308 5.37890625 141.85546875 C12.16723691 128.35395501 13.62094393 113.41216648 9.4375 98.75 C2.5699417 83.18504057 -11.30387966 75.40234953 -26.51171875 69.48828125 C-38.05447156 65.30517452 -50.36617087 62.82140055 -62.4375 60.69140625 C-73.35899173 58.75017829 -83.35389278 55.34925277 -91.0625 47.0625 C-94.35309635 41.98949729 -94.13076361 36.60071402 -93.5625 30.75 C-91.90975798 25.13067712 -88.69053117 20.69231297 -83.5625 17.75 C-66.8874481 10.491448 -46.56763318 10.17858685 -29.5625 16.75 C-23.52778812 19.68169473 -17.9818858 23.38629874 -12.9375 27.8125 C-11.761875 28.7715625 -11.761875 28.7715625 -10.5625 29.75 C-6.79967212 28.49572404 -6.6209387 27.51187368 -4.86328125 24.05859375 C-4.13334961 22.64223633 -4.13334961 22.64223633 -3.38867188 21.19726562 C-2.6394043 19.70743164 -2.6394043 19.70743164 -1.875 18.1875 C-1.36388672 17.19041016 -0.85277344 16.19332031 -0.32617188 15.16601562 C0.93718738 12.69833259 2.19125669 10.22635915 3.4375 7.75 C-5.81613009 -4.8548279 -24.3044108 -11.48717302 -39.25341797 -13.84863281 C-44.83773749 -14.52596949 -50.38073133 -14.57854588 -56 -14.5625 C-57.68706055 -14.58666992 -57.68706055 -14.58666992 -59.40820312 -14.61132812 C-74.8984157 -14.62022543 -90.11755661 -10.64285652 -102.5625 -1.25 Z " fill="#ABA7AC" transform="translate(184.5625,49.25)"/>
<path d="M0 0 C10.89 0 21.78 0 33 0 C33.029729 5.57165039 33.029729 5.57165039 33.06005859 11.25585938 C33.12698903 23.53339453 33.20452974 35.81084349 33.28752708 48.08827972 C33.33758565 55.53148863 33.38402916 62.9746869 33.421875 70.41796875 C33.45488209 76.9077735 33.49476105 83.397494 33.54279006 89.8872056 C33.56796869 93.32142148 33.5897751 96.7555821 33.60334396 100.18986511 C33.62024497 104.02969398 33.64929035 107.86925452 33.68115234 111.70898438 C33.68331253 112.83971375 33.68547272 113.97044312 33.68769836 115.13543701 C33.80951134 126.64025216 36.35355693 137.46201329 44.078125 146.40625 C53.92306587 155.6315792 64.27629225 157.57728171 77.3671875 157.34375 C83.59922981 157.03912879 88.62355362 155.10877344 94 152 C95.13695312 151.34837891 95.13695312 151.34837891 96.296875 150.68359375 C103.90638 145.66303688 108.81706722 136.76314023 111 128 C112.02329769 121.34105908 112.16989409 114.80622418 112.20532227 108.07617188 C112.21522186 106.9045752 112.22512146 105.73297852 112.23532104 104.52587891 C112.26677651 100.67352279 112.29163017 96.82115437 112.31640625 92.96875 C112.33698957 90.28975011 112.35794044 87.61075561 112.37937927 84.9317627 C112.4291359 78.61384451 112.47413732 72.29590189 112.51740164 65.97793627 C112.56692031 58.78076095 112.62178381 51.58362942 112.67708123 44.38649654 C112.79063957 29.5910382 112.89682934 14.79553475 113 0 C123.56 0 134.12 0 145 0 C145.04531834 14.9958392 145.08208835 29.99164283 145.10362434 44.98753452 C145.11389401 51.95191988 145.12787086 58.91625935 145.15087891 65.88061523 C145.17310297 72.61093203 145.18459397 79.3411915 145.18975449 86.07154655 C145.19342865 88.62974735 145.20060294 91.18794578 145.21146011 93.74612617 C145.32398619 121.3772055 143.49638812 148.79807978 124.41015625 170.6015625 C108.96042957 185.97616895 89.61412248 190.29889513 68.57446289 190.31469727 C49.80537202 190.05178998 34.27253544 183.41348272 21 170 C20.36449219 169.39800781 19.72898438 168.79601562 19.07421875 168.17578125 C13.21388311 162.18550469 10.14880289 154.63333738 7 147 C6.39478516 145.56527344 6.39478516 145.56527344 5.77734375 144.1015625 C-1.0255157 126.04682524 -0.41866369 105.9822124 -0.29296875 87.01171875 C-0.2873575 84.48582718 -0.28309466 81.95993229 -0.28010559 79.43403625 C-0.2687771 72.85992042 -0.23941636 66.28601076 -0.20599365 59.7119751 C-0.17657382 53.63896117 -0.1644611 47.56590149 -0.15097082 41.4928354 C-0.11986364 27.6617781 -0.06499031 13.83093748 0 0 Z M3 3 C2.95470667 17.50884857 2.91805933 32.01764971 2.89637566 46.52655315 C2.88609977 53.26455418 2.87211073 60.00250788 2.84912109 66.74047852 C2.82729406 73.25033377 2.81541063 79.76014002 2.81024551 86.27002907 C2.80656741 88.74615054 2.79938526 91.22226952 2.78853989 93.69836998 C2.56952382 111.45936468 2.56952382 111.45936468 5 129 C5.15547302 129.72690033 5.31094604 130.45380066 5.47113037 131.20272827 C9.48204547 148.6656643 16.37138543 165.09036327 31.48046875 175.75 C49.14429711 186.70431216 70.13041496 190.26182777 90.48510742 185.51513672 C106.5921081 181.31080065 119.90727914 173.33469927 129 159 C129.57492187 158.10152344 130.14984375 157.20304688 130.7421875 156.27734375 C134.5109959 149.88007456 136.95453081 143.64551664 138.875 136.5 C139.07810791 135.75387451 139.28121582 135.00774902 139.49047852 134.23901367 C143.18080561 119.3898784 142.13149671 103.62012894 142.09765625 88.44921875 C142.09578832 85.9791517 142.09436619 83.50908428 142.09336853 81.03901672 C142.08957291 74.5766597 142.07976824 68.11432559 142.06866455 61.65197754 C142.05838651 55.04207672 142.05385728 48.43217215 142.04882812 41.82226562 C142.038143 28.88149879 142.02057052 15.9407549 142 3 C133.42 3 124.84 3 116 3 C115.98018066 6.44590576 115.96036133 9.89181152 115.93994141 13.44213867 C115.87286206 24.86149119 115.79532185 36.28075959 115.71247292 47.70000744 C115.66252292 54.61956296 115.61607931 61.53910766 115.578125 68.45874023 C115.54144754 75.14373536 115.49468824 81.82859227 115.44193649 88.51348305 C115.42348621 91.05656063 115.40834419 93.59966456 115.39665604 96.14278221 C115.37963244 99.7205592 115.35055997 103.29805942 115.31884766 106.87573242 C115.31668747 107.9136795 115.31452728 108.95162659 115.31230164 110.02102661 C115.1988472 120.12215632 114.72604053 130.31444604 109.4375 139.125 C106.88719543 143.4118838 106.88719543 143.4118838 105 148 C103.68596724 148.70394612 102.3479743 149.36345658 101 150 C99.88625 150.928125 99.88625 150.928125 98.75 151.875 C89.61062605 158.93724351 78.404471 161.08042357 67 160 C55.8191581 158.23304092 46.64791529 153.97030346 39.4609375 145.0625 C32.47667406 135.20236338 30.5521908 124.54941798 30.56762695 112.66552734 C30.5574353 111.47413147 30.54724365 110.2827356 30.53674316 109.05523682 C30.51190015 105.82033041 30.49991973 102.5856973 30.49388909 99.35071135 C30.48444615 95.95807279 30.4582385 92.56556252 30.43388367 89.17300415 C30.39037656 82.76307281 30.36173306 76.35316659 30.33856028 69.943133 C30.31142342 62.63945893 30.26751754 55.33591492 30.22227156 48.03233409 C30.12965167 33.02161287 30.06008075 18.01089335 30 3 C21.09 3 12.18 3 3 3 Z " fill="#AFAFB2" transform="translate(222,34)"/>
<path d="M0 0 C1.11719279 0.95186693 2.23357171 1.90468914 3.34960938 2.85791016 C3.97138062 3.38840973 4.59315186 3.9189093 5.23376465 4.46548462 C7.40867405 6.35505836 9.46674362 8.33415684 11.5 10.375 C12.1909375 11.06335937 12.881875 11.75171875 13.59375 12.4609375 C15.52389275 14.49761411 17.35797707 16.56349511 19.18554688 18.68994141 C22.77475673 22.80077641 26.55498315 26.66767761 30.4375 30.5 C31.12126709 31.17998047 31.80503418 31.85996094 32.50952148 32.56054688 C34.67057055 34.70950926 36.83484726 36.85517279 39 39 C41.85716017 41.83033837 44.71083454 44.66412673 47.5625 47.5 C48.20437256 48.13357422 48.84624512 48.76714844 49.50756836 49.41992188 C52.62106677 52.51676622 55.61632893 55.66156772 58.48632812 58.98632812 C62.02942124 63.08883086 65.80063283 66.91133682 69.65625 70.71875 C70.36221313 71.42092651 71.06817627 72.12310303 71.79553223 72.84655762 C74.02791358 75.06684603 76.26352111 77.28383955 78.5 79.5 C81.45090378 82.42409479 84.39833203 85.35163057 87.34375 88.28125 C88.33936951 89.264422 88.33936951 89.264422 89.35510254 90.26745605 C89.99266479 90.90171509 90.63022705 91.53597412 91.28710938 92.18945312 C91.83669312 92.73380005 92.38627686 93.27814697 92.95251465 93.83898926 C96.0716667 97.13108661 99.01362428 100.58699918 102 104 C109.26 111.26 116.52 118.52 124 126 C124.33 87.06 124.66 48.12 125 8 C135.89 8 146.78 8 158 8 C158 72.68 158 137.36 158 204 C153.64773867 201.82386933 151.14520985 199.13617653 147.96484375 195.58984375 C142.31006825 189.40987299 136.50401946 183.41247344 130.56640625 177.50390625 C129.75158783 176.69239105 128.93676941 175.88087585 128.09725952 175.04476929 C125.58765343 172.54867634 123.0755208 170.05515478 120.5625 167.5625 C117.20665371 164.23345198 113.85429613 160.90094458 110.50390625 157.56640625 C109.37717247 156.45211998 109.37717247 156.45211998 108.22767639 155.31532288 C104.87934039 151.98245426 101.62465675 148.62457039 98.54272461 145.04272461 C94.52586298 140.38150132 90.18370084 136.07679472 85.8125 131.75 C84.95116455 130.89245117 84.0898291 130.03490234 83.20239258 129.15136719 C80.4706888 126.43179111 77.73576725 123.715488 75 121 C71.39288149 117.41961974 67.78918198 113.83584819 64.1875 110.25 C62.96220581 109.03715332 62.96220581 109.03715332 61.7121582 107.79980469 C58.19338815 104.2959802 54.75229967 100.77940395 51.51367188 97.01367188 C47.4422805 92.28207071 43.02743206 87.92106584 38.59375 83.53125 C37.71021851 82.65150513 36.82668701 81.77176025 35.91638184 80.86535645 C33.11334867 78.07445494 30.30720084 75.28670768 27.5 72.5 C23.7989945 68.82601262 20.10168178 65.14834398 16.40625 61.46875 C15.56751343 60.63831177 14.72877686 59.80787354 13.86462402 58.95227051 C12.28812774 57.38230216 10.72154334 55.80229839 9.16651917 54.21105957 C7.76519244 52.78092366 6.33884549 51.37470561 4.88414001 49.99890137 C0.54651355 45.63654021 -0.79677701 42.54800443 -0.79307556 36.38513184 C-0.75694656 35.46397583 -0.72081757 34.54281982 -0.68359375 33.59375 C-0.67368912 32.6284436 -0.66378448 31.66313721 -0.65357971 30.6685791 C-0.61465563 27.61078496 -0.5268784 24.55669321 -0.4375 21.5 C-0.40235759 19.41671882 -0.37042373 17.3333809 -0.34179688 15.25 C-0.26496585 10.16525843 -0.14433856 5.08325499 0 0 Z M3 7 C-0.27869063 28.72514236 -0.27869063 28.72514236 6.48149109 48.60133362 C11.46032933 54.40131937 17.3426515 59.19333877 23.36816406 63.86572266 C26.16356979 66.1326463 28.41575401 68.48770142 30.61669922 71.32104492 C32.58792468 73.71358243 34.79138385 75.82425414 37 78 C38.19845611 79.19192167 39.39623741 80.38452207 40.59350586 81.57763672 C41.25446762 82.23537079 41.91542938 82.89310486 42.59642029 83.57077026 C45.59077434 86.55168743 48.58243526 89.53530139 51.57397461 92.51904297 C53.14697005 94.08700145 54.72086073 95.65406234 56.2956543 97.22021484 C58.58361717 99.49597843 60.86827325 101.77501815 63.15234375 104.0546875 C63.84939926 104.74658173 64.54645477 105.43847595 65.26463318 106.15133667 C68.91786704 109.80415504 72.39462202 113.51848741 75.67652893 117.51004028 C77.16688399 119.26353961 77.16688399 119.26353961 79.9375 121.4375 C82.37340161 123.47570339 84.2202857 125.32342945 86.25170898 127.71655273 C89.68632221 131.68719963 93.29858387 135.41265431 97.03515625 139.09765625 C97.67690292 139.7356163 98.3186496 140.37357635 98.97984314 141.03086853 C101.00494651 143.043898 103.03328377 145.05361709 105.0625 147.0625 C107.74386679 149.71706907 110.42176066 152.37507334 113.09765625 155.03515625 C113.70094254 155.6301442 114.30422882 156.22513214 114.92579651 156.83815002 C118.35991444 160.25262783 121.59802706 163.76476166 124.71043396 167.47557068 C126.37388209 169.44197567 128.07801512 171.28394207 130 173 C130.66 173 131.32 173 132 173 C132.2364624 173.56170898 132.4729248 174.12341797 132.71655273 174.70214844 C134.29859317 177.53459367 136.23511556 179.47709467 138.53515625 181.765625 C139.42654297 182.65507812 140.31792969 183.54453125 141.23632812 184.4609375 C142.16896484 185.38132813 143.10160156 186.30171875 144.0625 187.25 C145.00886639 188.1949092 145.95483436 189.14021762 146.90039062 190.0859375 C150.49375375 194.44783122 150.49375375 194.44783122 155 197 C155 135.29 155 73.58 155 10 C146.42 10 137.84 10 129 10 C128.67 50.92 128.34 91.84 128 134 C115 121 115 121 111.3125 116.6875 C110.1678125 115.3571875 110.1678125 115.3571875 109 114 C108.34 114 107.68 114 107 114 C106.72919113 113.40354675 106.45838226 112.80709351 106.17936707 112.19256592 C105.01304268 110.0242477 103.87418908 108.63737398 102.13012695 106.91894531 C101.5522493 106.34444641 100.97437164 105.76994751 100.37898254 105.17803955 C99.75505112 104.56756775 99.13111969 103.95709595 98.48828125 103.328125 C97.84183151 102.68687683 97.19538177 102.04562866 96.52934265 101.38494873 C94.46175974 99.33515238 92.38763776 97.29214555 90.3125 95.25 C88.25603754 93.22133738 86.20111681 91.1911744 84.1492157 89.15789795 C82.87423441 87.89497334 81.59659246 86.6347266 80.31575012 85.37774658 C76.47952067 81.58372141 72.91892563 77.65131373 69.47428894 73.49676514 C68.98777359 73.00283264 68.50125824 72.50890015 68 72 C67.34 72 66.68 72 66 72 C65.79221924 71.46552246 65.58443848 70.93104492 65.37036133 70.38037109 C63.45402939 67.05162775 60.8005074 64.57535673 58.07421875 61.9140625 C57.4896138 61.33465912 56.90500885 60.75525574 56.3026886 60.15829468 C54.43565668 58.3090372 52.56208595 56.46659709 50.6875 54.625 C48.82447008 52.78972606 46.96296914 50.9529671 45.10444641 49.11312866 C43.94969903 47.97048609 42.79228992 46.83052479 41.63175964 45.6937561 C39.09778611 43.19078935 36.67514498 40.67196386 34.41723633 37.91552734 C32.07801013 35.0940912 29.62112919 32.55866114 27 30 C25.65056269 28.64252149 24.30114502 27.28502318 22.95245361 25.92680359 C20.92050534 23.88141171 18.88582751 21.83874358 16.85107422 19.79614258 C15.77565135 18.71563613 14.70111942 17.63424225 13.62744141 16.55200195 C12.07165268 14.98416567 10.51272791 13.41950971 8.953125 11.85546875 C8.02661133 10.92371826 7.10009766 9.99196777 6.14550781 9.03198242 C4.37149458 6.88539384 4.37149458 6.88539384 3 7 Z " fill="#AFADAC" transform="translate(694,26)"/>
<path d="M0 0 C3.10887525 3.68427982 4.90875933 7.81406866 6.88671875 12.1640625 C7.26072311 12.97606613 7.63472748 13.78806976 8.02006531 14.62467957 C8.82594958 16.37552447 9.62971442 18.12734615 10.43157959 19.8800354 C12.56615586 24.5454077 14.71599947 29.20374694 16.86328125 33.86328125 C17.29741333 34.8065477 17.73154541 35.74981415 18.17883301 36.72166443 C22.19498609 45.44198539 26.27526707 54.13123414 30.375 62.8125 C36.2273448 75.2157945 42.02636091 87.64248578 47.79296875 100.0859375 C51.1620791 107.35475941 54.54809505 114.61562647 57.9375 121.875 C58.2278714 122.4969928 58.5182428 123.1189856 58.81741333 123.75982666 C60.87787796 128.17340347 62.93886629 132.58673562 65 137 C69.08092918 145.73801601 73.1604423 154.47668761 77.23583984 163.21728516 C78.44893459 165.8188833 79.66291246 168.42006719 80.87744141 171.02099609 C82.41890197 174.32232324 83.95840868 177.62455504 85.49655151 180.9274292 C86.07899197 182.17729362 86.66209431 183.42684983 87.24588013 184.67608643 C88.04850335 186.39390845 88.84854142 188.11293765 89.6484375 189.83203125 C90.10395996 190.80889893 90.55948242 191.7857666 91.02880859 192.79223633 C92 195 92 195 92 196 C80.45 196 68.9 196 57 196 C51.40399569 185.13716811 46.3032338 174.11204048 41.33642578 162.94873047 C37.01874302 153.2478245 32.61905099 143.58686665 28.1875 133.9375 C23.92483067 124.65579334 19.69840482 115.3602657 15.56640625 106.01953125 C15.20294601 105.19827255 14.83948578 104.37701385 14.4650116 103.53086853 C12.71298998 99.56872892 10.96651913 95.60424783 9.22729492 91.63647461 C8.59430845 90.20032714 7.96125527 88.76420908 7.328125 87.328125 C7.04961197 86.68796951 6.77109894 86.04781403 6.48414612 85.38825989 C4.57843458 81.07676812 2.38881765 77.05513186 0 73 C-0.47606689 74.0523584 -0.95213379 75.1047168 -1.44262695 76.18896484 C-1.92235458 77.24941261 -1.92235458 77.24941261 -2.41177368 78.33128357 C-3.14426219 79.95047252 -3.87674488 81.56966411 -4.60922241 83.18885803 C-6.70720251 87.82656817 -8.80529325 92.46422821 -10.90356445 97.10180664 C-15.24776528 106.70361514 -19.59066298 116.30600738 -23.9296875 125.91015625 C-31.61183466 142.91161346 -39.30903304 159.90592757 -47.0625 176.875 C-47.57579361 177.99912796 -47.57579361 177.99912796 -48.09945679 179.14596558 C-49.05633594 181.24093137 -50.01427193 183.33540992 -50.97265625 185.4296875 C-51.51156494 186.60772949 -52.05047363 187.78577148 -52.60571289 188.99951172 C-53.69856728 191.35132059 -54.84022971 193.68045941 -56 196 C-67.55 196 -79.1 196 -91 196 C-84.78022062 181.81890301 -78.26334971 167.78585928 -71.69651794 153.76347351 C-68.72217617 147.41084749 -65.76493168 141.0503375 -62.8125 134.6875 C-62.29526367 133.57310547 -61.77802734 132.45871094 -61.24511719 131.31054688 C-57.9781893 124.26958587 -54.71514784 117.22682839 -51.453125 110.18359375 C-49.822986 106.66403038 -48.19277806 103.14449896 -46.5625 99.625 C-46.1543808 98.74392578 -45.7462616 97.86285156 -45.32577515 96.95507812 C-40.1079701 85.69181887 -34.87864222 74.43408854 -29.625 63.1875 C-16.43557541 35.06707903 -16.43557541 35.06707903 -3.62573242 6.77294922 C-1.10371827 1.10371827 -1.10371827 1.10371827 0 0 Z M0 7 C-5.91494734 18.63075176 -11.49535359 30.39153751 -16.9375 42.25 C-17.73657766 43.98566816 -18.5358139 45.72126332 -19.33520508 47.45678711 C-23.64632704 56.82532999 -27.95376611 66.19633991 -32.09936523 75.63964844 C-34.03798932 80.01645893 -36.14124996 84.28999199 -38.30078125 88.5625 C-42.09810032 96.0862279 -45.56602852 103.74268276 -49 111.4375 C-55.38371228 125.7028883 -61.94418051 139.86755276 -68.75 153.9375 C-72.98746229 162.73843536 -77.16064809 171.56672102 -81.25 180.4375 C-81.72791992 181.4680249 -82.20583984 182.4985498 -82.69824219 183.56030273 C-83.13297852 184.50848877 -83.56771484 185.4566748 -84.015625 186.43359375 C-84.40008789 187.26947021 -84.78455078 188.10534668 -85.18066406 188.96655273 C-86.12457731 190.94379407 -86.12457731 190.94379407 -86 193 C-76.76 193 -67.52 193 -58 193 C-53.17157603 183.65804927 -48.85185889 174.19102955 -44.69604492 164.53173828 C-41.83685586 157.89485857 -38.86602456 151.3342496 -35.77734375 144.80078125 C-33.26129576 139.45722924 -30.86437807 134.05921395 -28.45874023 128.6652832 C-26.26356447 123.75809023 -24.01717561 118.87663268 -21.73828125 114.0078125 C-18.03136912 106.08785956 -14.38136208 98.14240104 -10.74584961 90.18945312 C-9.67234494 87.84185813 -8.5969355 85.49514134 -7.52148438 83.1484375 C-6.83061401 81.6380735 -6.13985457 80.12765876 -5.44921875 78.6171875 C-5.13152023 77.92446747 -4.81382172 77.23174744 -4.48649597 76.51803589 C-2.90071202 73.04401014 -1.38016319 69.56101864 0 66 C2.31549965 68.88131567 3.88553878 71.67981796 5.35546875 75.06640625 C5.8047876 76.09145264 6.25410645 77.11649902 6.71704102 78.17260742 C7.20229248 79.29127197 7.68754395 80.40993652 8.1875 81.5625 C9.26131285 84.00858373 10.33648984 86.45401289 11.4140625 88.8984375 C11.69864822 89.54485703 11.98323395 90.19127655 12.27644348 90.85728455 C15.79648023 98.83493763 19.42976848 106.7607015 23.0625 114.6875 C23.75676773 116.20393277 24.45102231 117.72037156 25.14526367 119.23681641 C28.05679382 125.59363205 30.9741264 131.94772642 33.90234375 138.296875 C34.76854903 140.176936 35.6344451 142.05713949 36.5 143.9375 C37.12152954 145.28763184 37.12152954 145.28763184 37.75561523 146.66503906 C40.6139325 152.90273499 43.41424663 159.16509466 46.1953125 165.4375 C46.56062073 166.26125626 46.92592896 167.08501251 47.30230713 167.93373108 C49.13343249 172.06524355 50.96073849 176.19840021 52.78320312 180.33374023 C53.45179723 181.84620276 54.12041586 183.35865445 54.7890625 184.87109375 C55.09893097 185.57713745 55.40879944 186.28318115 55.72805786 187.01062012 C57.00157096 190.23512807 57.00157096 190.23512807 59 193 C61.07262076 193.08767112 63.14820294 193.10695873 65.22265625 193.09765625 C67.11274414 193.09282227 67.11274414 193.09282227 69.04101562 193.08789062 C70.38151109 193.07953403 71.72200588 193.07106907 73.0625 193.0625 C74.40689942 193.0574866 75.7513006 193.05292342 77.09570312 193.04882812 C80.39717941 193.03699488 83.69856803 193.02050971 87 193 C84.59615614 184.77289099 80.94766461 177.24278885 77.2520752 169.53759766 C75.7126667 166.3277317 74.18478712 163.11242294 72.65625 159.89736938 C71.8801198 158.26508276 71.10342687 156.63306358 70.32617188 155.00131226 C66.92334062 147.85437111 63.57488541 140.68352824 60.25 133.5 C59.46677368 131.80858887 59.46677368 131.80858887 58.66772461 130.08300781 C57.62732577 127.83557807 56.58720191 125.58802102 55.54736328 123.34033203 C53.99264008 119.98411196 52.43272373 116.63035518 50.87109375 113.27734375 C44.06557063 98.6598174 37.32978235 84.0118972 30.64331055 69.33959961 C24.68778829 56.27671204 18.63691109 43.26175303 12.4375 30.3125 C11.96787842 29.33079834 11.49825684 28.34909668 11.0144043 27.33764648 C7.7469216 20.52206265 4.4323637 13.73438448 1 7 C0.67 7 0.34 7 0 7 Z " fill="#ABAAAA" transform="translate(586,26)"/>
<path d="M0 0 C5.20957617 -0.37422359 10.41118661 -0.64434087 15.63110352 -0.82397461 C17.40039328 -0.89888308 19.16877049 -1.00087725 20.93481445 -1.1315918 C35.14364349 -2.15597727 35.14364349 -2.15597727 39.83590698 1.38574219 C43.19091211 4.91494818 45.63984866 8.93649047 47.98306274 13.18417358 C49.25096351 15.4481163 50.72759148 17.50719647 52.27734375 19.5859375 C53.16548187 20.84796066 54.05223029 22.11096309 54.9375 23.375 C55.94791416 24.81119968 56.9583309 26.24739754 57.96875 27.68359375 C58.97922649 29.12235382 59.98964346 30.56115569 61 32 C67.0735802 40.64209887 73.17344155 49.26162548 79.375 57.8125 C84.58683683 64.99938158 89.69307791 72.25502775 94.76904297 79.53833008 C98.62703038 85.06447746 102.53999891 90.54656785 106.5 96 C111.06621831 102.28827144 115.55661079 108.62435583 120 115 C125.01234347 122.19129167 130.09756645 129.32378035 135.24389648 136.41967773 C140.39076627 143.52218566 145.44877551 150.68553578 150.49414062 157.86035156 C152.57727617 160.8202413 154.66596079 163.77619754 156.75463867 166.73217773 C158.73273592 169.53238968 160.70835167 172.33434829 162.68408203 175.13623047 C163.88976982 176.84387808 165.09900454 178.54901994 166.30859375 180.25390625 C166.94925781 181.16011719 167.58992188 182.06632813 168.25 183 C169.06210938 184.1446875 169.06210938 184.1446875 169.890625 185.3125 C171 187 171 187 171 188 C137.70592404 190.97548186 137.70592404 190.97548186 129.13476562 186.50585938 C124.80488975 182.44737173 122.63303787 177.27934626 120.35693359 171.88378906 C117.8683425 166.59497331 114.2977108 162.02750277 110.875 157.3125 C109.51389756 155.36760756 108.15703151 153.41974259 106.8046875 151.46875 C106.15854492 150.540625 105.51240234 149.6125 104.84667969 148.65625 C97.7913075 138.50785637 90.81553426 128.31118077 84 118 C81.04780262 120.78460539 78.81583585 123.58983017 76.625 127 C72.97339848 132.57207344 69.20379052 138.04821542 65.375 143.5 C64.77800293 144.35029785 64.18100586 145.2005957 63.56591797 146.07666016 C62.33233078 147.83289272 61.09844048 149.58891242 59.86425781 151.34472656 C58.01779554 153.97465371 56.1759881 156.60777118 54.3359375 159.2421875 C53.73475098 160.10263672 53.13356445 160.96308594 52.51416016 161.84960938 C51.39101612 163.4573871 50.26825284 165.06543093 49.14599609 166.67382812 C48.06013884 168.22685267 46.95585323 169.76712154 45.83544922 171.29541016 C44.39902944 173.41201807 43.22431958 175.4317163 42.04345703 177.68505859 C36.83687064 187.01410814 36.83687064 187.01410814 31.92602539 188.72076416 C26.0842942 189.734447 20.25652507 189.27930717 14.375 188.875 C12.59008914 188.80466667 10.80491081 188.74080698 9.01953125 188.68359375 C4.67301069 188.53031686 0.3394854 188.28955358 -4 188 C-2.79817679 184.75919507 -1.50977545 182.05292831 0.546875 179.27734375 C1.05484619 178.58439209 1.56281738 177.89144043 2.08618164 177.17749023 C2.6352417 176.43829346 3.18430176 175.69909668 3.75 174.9375 C4.93230443 173.32387924 6.11324605 171.70925923 7.29296875 170.09375 C8.21021729 168.83884766 8.21021729 168.83884766 9.14599609 167.55859375 C12.16884594 163.3869495 15.11679087 159.16380964 18.0625 154.9375 C19.23822478 153.25256476 20.41400562 151.56766864 21.58984375 149.8828125 C22.1607373 149.06458008 22.73163086 148.24634766 23.31982422 147.40332031 C25.91005817 143.69825449 28.51627152 140.0045576 31.125 136.3125 C31.61307129 135.6213208 32.10114258 134.9301416 32.60400391 134.21801758 C35.05136711 130.75342586 37.50225058 127.29137126 39.95703125 123.83203125 C41.93982551 121.03735611 43.9126332 118.23600691 45.87890625 115.4296875 C48.12616841 112.22387407 50.41346007 109.04996328 52.71484375 105.8828125 C53.93547378 104.17228727 55.15553807 102.46135818 56.375 100.75 C57.26046509 99.55238037 57.26046509 99.55238037 58.16381836 98.33056641 C61.25022468 94.25718732 61.25022468 94.25718732 61.6796875 89.42578125 C61.12539063 88.62527344 60.57109375 87.82476562 60 87 C59.46221924 86.18329834 59.46221924 86.18329834 58.91357422 85.35009766 C57.57030097 83.34443169 56.16694521 81.39177378 54.75 79.4375 C53.65835022 77.91181879 52.56722562 76.3857617 51.4765625 74.859375 C50.90583008 74.06337891 50.33509766 73.26738281 49.74707031 72.44726562 C46.84414709 68.38090141 43.98564579 64.283662 41.125 60.1875 C39.9427763 58.49734829 38.76048408 56.8072445 37.578125 55.1171875 C35.78832591 52.557677 33.99865525 49.99807672 32.20898438 47.43847656 C26.02606649 38.59656613 19.84037464 29.75663942 13.625 20.9375 C13.13596191 20.24301758 12.64692383 19.54853516 12.14306641 18.83300781 C8.61271025 13.83297389 5.00432811 8.89803844 1.328125 4.00390625 C0 2 0 2 0 0 Z M6 3 C10.22528254 11.64533135 16.25218805 19.41977503 21.85864258 27.21533203 C27.40871213 34.93871622 32.83838932 42.7467152 38.28393555 50.54394531 C40.64847965 53.92811286 43.01654052 57.30981401 45.38476562 60.69140625 C47.02978701 63.04257346 48.67153676 65.39599916 50.3125 67.75 C52.38445187 70.71665836 54.47644552 73.66718776 56.59375 76.6015625 C57.04322998 77.22579102 57.49270996 77.85001953 57.95581055 78.49316406 C58.84279732 79.72348511 59.73218648 80.95207867 60.62426758 82.17871094 C62.67395506 85.02363677 64.56939972 87.79102921 66 91 C60.79001232 98.62678804 55.57642978 106.24811627 50.1875 113.75 C42.08192962 125.0352581 34.13989765 136.43813951 26.25 147.875 C22.75178923 152.94025313 19.19090906 157.95724068 15.60424805 162.95996094 C12.52625515 167.25449676 9.48675273 171.57435602 6.47265625 175.9140625 C5.45644505 177.35347041 4.39851767 178.76400758 3.30859375 180.1484375 C1.80761447 181.89432592 1.80761447 181.89432592 2 184 C6.26791292 184.27402638 10.53105996 184.47239009 14.80517578 184.60424805 C16.25497637 184.65924048 17.70417573 184.73407754 19.15185547 184.82983398 C27.98858384 185.54241683 27.98858384 185.54241683 35.62475586 181.7331543 C37.68115478 178.91338243 39.36576629 176.08043241 41 173 C41.81426612 171.79715448 42.64530697 170.60520544 43.50390625 169.43359375 C44.18324219 168.44488281 44.86257813 167.45617187 45.5625 166.4375 C48.19493909 162.61548791 50.83408264 158.79877831 53.5 155 C56.79631693 150.29955718 60.0606618 145.57749207 63.3203125 140.8515625 C65.39816478 137.85201699 67.50460399 134.87361356 69.6171875 131.8984375 C70.2474585 131.00753418 70.87772949 130.11663086 71.52709961 129.19873047 C72.78158185 127.42658392 74.04008713 125.65727704 75.30297852 123.89111328 C75.88233154 123.0711084 76.46168457 122.25110352 77.05859375 121.40625 C77.57736084 120.67728516 78.09612793 119.94832031 78.63061523 119.19726562 C80.07844005 116.87413792 81.05875963 114.56553461 82 112 C86.28770549 115.76798361 89.00250097 120.02307393 91.99609375 124.859375 C94.13907644 128.21796775 96.4170944 131.46005583 98.75 134.6875 C102.41818418 139.77009325 106.01971381 144.89162929 109.5625 150.0625 C110.02422607 150.73611572 110.48595215 151.40973145 110.96166992 152.10375977 C111.87441768 153.43603935 112.78693841 154.76847452 113.69921875 156.10107422 C117.7095476 161.96181455 117.7095476 161.96181455 121.83984375 167.73828125 C123.49044502 170.23059962 124.56810776 172.21822668 125.69140625 174.91796875 C127.73431615 179.28612876 129.56817737 182.76061505 134 185 C144.18037396 186.7744163 154.75822506 185.84681221 165 185 C163.82446637 181.85996817 162.58936855 179.15057862 160.63671875 176.42578125 C160.16886963 175.76787598 159.70102051 175.1099707 159.21899414 174.43212891 C158.71360107 173.73265137 158.20820801 173.03317383 157.6875 172.3125 C157.15697021 171.56919434 156.62644043 170.82588867 156.07983398 170.06005859 C153.32787252 166.21142656 150.55231566 162.38000414 147.7734375 158.55078125 C146.70306848 157.07556184 145.63275608 155.60030135 144.5625 154.125 C144.02834473 153.38950928 143.49418945 152.65401855 142.94384766 151.89624023 C138.33748903 145.527167 133.88634252 139.05798372 129.48852539 132.54345703 C126.5682136 128.23048246 123.55536297 124.01807695 120.40893555 119.8671875 C118.34652275 117.13398128 116.36168713 114.35137179 114.375 111.5625 C113.95460449 110.97251221 113.53420898 110.38252441 113.10107422 109.7746582 C106.7110326 100.7970586 100.36624719 91.78718671 94.02734375 82.7734375 C88.8961828 75.48272266 83.72981425 68.22034717 78.5 61 C71.74538336 51.67449151 65.10539056 42.27056427 58.48828125 32.84716797 C57.98683594 32.13318848 57.48539063 31.41920898 56.96875 30.68359375 C56.46956055 29.97009766 55.97037109 29.25660156 55.45605469 28.52148438 C54.44691686 27.09506318 53.42412164 25.67820291 52.38769531 24.27148438 C49.85590904 20.8127246 47.68705001 17.49596775 45.890625 13.59765625 C43.61996623 9.09309583 41.62606133 5.35428339 37 3 C26.81501259 1.15565318 16.24881913 2.08668324 6 3 Z " fill="#AAA8A9" transform="translate(940,34)"/>
<path d="M0 0 C1.5142043 0.04518321 3.02853766 0.08624119 4.54296875 0.12304688 C8.23967578 0.22184856 11.93151617 0.37690577 15.625 0.5625 C14.53252852 2.29117323 13.4384628 4.018839 12.34375 5.74609375 C11.73466797 6.70829834 11.12558594 7.67050293 10.49804688 8.66186523 C7.66400637 13.05071237 4.64817324 17.30288288 1.625 21.5625 C0.51997376 23.14523355 -0.58417984 24.72857668 -1.6875 26.3125 C-4.02431802 29.65451247 -6.38764848 32.97588773 -8.76855469 36.28662109 C-13.25229408 42.5250991 -17.62060616 48.83236938 -21.9375 55.1875 C-26.88842617 62.47165471 -31.99063546 69.59204359 -37.375 76.5625 C-40.95672737 73.23066059 -43.69607106 69.53958615 -46.5 65.5625 C-46.94214844 64.94632812 -47.38429688 64.33015625 -47.83984375 63.6953125 C-49.93634652 60.74374062 -51.89646714 57.88504575 -53.375 54.5625 C-52.85292969 53.8096875 -52.33085938 53.056875 -51.79296875 52.28125 C-46.5837394 44.76390326 -41.39297264 37.23411207 -36.21484375 29.6953125 C-34.29265163 26.89685627 -32.36798968 24.10012228 -30.44140625 21.3046875 C-29.95913574 20.60448486 -29.47686523 19.90428223 -28.97998047 19.18286133 C-28.07196899 17.86463385 -27.1634841 16.54673227 -26.25439453 15.22924805 C-25.62380127 14.31332886 -25.62380127 14.31332886 -24.98046875 13.37890625 C-24.54476563 12.77377197 -24.1090625 12.1686377 -23.66015625 11.54516602 C-22.29083078 9.54779861 -22.29083078 9.54779861 -21.29296875 7.10913086 C-16.82728998 -1.993089 -8.83768659 -0.45732008 0 0 Z " fill="#892F0C" transform="translate(1085.375,36.4375)"/>
<path d="M0 0 C10.89 0 21.78 0 33 0 C33.06799987 16.0043807 33.12314519 32.00863605 33.15543652 48.0131216 C33.17083554 55.44605661 33.19178989 62.87889478 33.22631836 70.31176758 C33.2564361 76.79830452 33.27562545 83.28477126 33.28226548 89.77137619 C33.28614033 93.19870558 33.29509672 96.6258343 33.31719017 100.05309868 C33.47234345 127.13825129 32.02098956 153.88913944 12.46875 174.6796875 C-0.42029858 186.79376164 -16.86508057 190.54783246 -33.99609375 190.2734375 C-47.88672662 189.73867328 -60.62029496 184.24173074 -71 175 C-72.485 172.525 -72.485 172.525 -74 170 C-68.72 161.09 -63.44 152.18 -58 143 C-56.35 144.65 -54.7 146.3 -53 148 C-45.23128642 155.23902856 -38.15087277 157.7217506 -27.44140625 157.38671875 C-19.82065565 156.53035745 -13.27730605 153.64549019 -8 148 C-3.93819296 141.24540724 -0.76708326 134.23957053 -0.7215271 126.26724243 C-0.71036362 125.14832611 -0.69920013 124.02940979 -0.68769836 122.87658691 C-0.68553818 121.66386108 -0.68337799 120.45113525 -0.68115234 119.20166016 C-0.67110672 117.91331268 -0.6610611 116.62496521 -0.65071106 115.2975769 C-0.62348375 111.77739585 -0.60828334 108.25725466 -0.59528303 104.73699617 C-0.57962055 101.05340807 -0.55284031 97.36990097 -0.5272522 93.68637085 C-0.48051948 86.71673885 -0.44374878 79.74709152 -0.41057932 72.77738321 C-0.37231895 64.84022283 -0.32291908 56.90314392 -0.27259517 48.96605229 C-0.16935722 32.64408787 -0.08154084 16.32208943 0 0 Z M3 3 C2.98018066 6.70395996 2.96036133 10.40791992 2.93994141 14.22412109 C2.87296074 26.47769394 2.79542007 38.73118103 2.71247292 50.98465538 C2.66245107 58.4121128 2.61600739 65.83955977 2.578125 73.26708984 C2.54507944 79.74446159 2.50517984 86.22174958 2.45720994 92.69902861 C2.43206917 96.12548334 2.41025203 99.5518834 2.39665604 102.978405 C2.37971378 106.81303571 2.35065885 110.6474013 2.31884766 114.48193359 C2.31668747 115.60547241 2.31452728 116.72901123 2.31230164 117.88659668 C2.17220846 131.15241603 -0.35182808 144.19621241 -10 154 C-17.57230231 159.29432755 -26.93409995 160.9150365 -36 160 C-44.67535112 158.05796879 -51.30559205 153.67386184 -58 148 C-58.29245605 148.49927002 -58.58491211 148.99854004 -58.88623047 149.51293945 C-60.21489807 151.7800016 -61.54493398 154.04625803 -62.875 156.3125 C-63.33519531 157.09818359 -63.79539062 157.88386719 -64.26953125 158.69335938 C-64.71425781 159.45068359 -65.15898437 160.20800781 -65.6171875 160.98828125 C-66.22989502 162.03302612 -66.22989502 162.03302612 -66.85498047 163.09887695 C-67.85648124 164.7617099 -68.9232503 166.38487545 -70 168 C-69.67996656 171.22543504 -68.60690902 172.79112945 -66.1875 174.875 C-52.9009941 185.58555068 -37.45070151 188.20754428 -20.8671875 186.71875 C-5.11846497 184.58054224 6.34557645 177.00534403 16.4375 165.0625 C30.17287667 146.95813641 29.43940052 125.22004081 29.30418181 103.6321671 C29.28521361 100.08482824 29.28364893 96.5374788 29.28010559 92.99009705 C29.27084348 86.29690694 29.2463103 79.60386679 29.21605712 72.91074222 C29.18232948 65.28057292 29.16598132 57.65039582 29.15097082 50.02017033 C29.11975425 34.34667902 29.06481691 18.67339385 29 3 C20.42 3 11.84 3 3 3 Z " fill="#B2B1B3" transform="translate(456,34)"/>
<path d="M0 0 C10.23 0 20.46 0 31 0 C31 61.71 31 123.42 31 187 C20.77 187 10.54 187 0 187 C0 125.29 0 63.58 0 0 Z M2 2 C1.97688364 25.58219667 1.95902213 49.16439063 1.94818783 72.74659634 C1.94302431 83.69540733 1.93598054 94.64421117 1.92456055 105.59301758 C1.91461542 115.13232731 1.90814698 124.67163185 1.90591151 134.21094662 C1.90460411 139.26524023 1.90151642 144.31951903 1.89426994 149.37380791 C1.88751243 154.12528784 1.88538249 158.87674677 1.88689232 163.62823105 C1.88661587 165.37743684 1.88460916 167.1266433 1.88079453 168.87584496 C1.87586146 171.25335148 1.87700026 173.63077736 1.87974548 176.00828552 C1.87683264 176.70963432 1.8739198 177.41098312 1.87091869 178.13358492 C1.61002224 181.34519775 1.61002224 181.34519775 3 184 C11.25 184 19.5 184 28 184 C28 123.94 28 63.88 28 2 C19.42 2 10.84 2 2 2 Z " fill="#A7A3A1" transform="translate(887,35)"/>
<path d="M0 0 C10.56 0 21.12 0 32 0 C28.50663182 2.32891212 27.13992135 2.23551143 23.01953125 2.1953125 C21.27446289 2.18564453 21.27446289 2.18564453 19.49414062 2.17578125 C18.27919922 2.15902344 17.06425781 2.14226563 15.8125 2.125 C14.58595703 2.11597656 13.35941406 2.10695312 12.09570312 2.09765625 C9.06360705 2.07406017 6.03190062 2.04113841 3 2 C3.00184359 2.59100337 3.00368717 3.18200674 3.00558662 3.7909193 C3.0499088 18.22431684 3.08292582 32.65770828 3.10362434 47.09115887 C3.11390209 54.07129561 3.12789476 61.05138671 3.15087891 68.03149414 C3.17307247 74.77476747 3.184588 81.51799347 3.18975449 88.26130104 C3.19343376 90.82673702 3.20061825 93.39217058 3.21146011 95.95758629 C3.2260973 99.56642512 3.22797285 103.17507154 3.22705078 106.78393555 C3.23424133 107.83123337 3.24143188 108.87853119 3.24884033 109.95756531 C3.22145956 119.93981199 2.74951765 130.20039504 -2.3125 139 C-2.88613281 140.03125 -3.45976562 141.0625 -4.05078125 142.125 C-10.34068912 151.40229898 -19.40097271 158.03662073 -30.375 160.25 C-42.97804075 162.17426069 -54.78112689 160.87568286 -65.6796875 153.796875 C-75.26842158 146.37125602 -80.40724875 136.67330532 -83 125 C-83.38956322 120.88186398 -83.38093353 116.79950001 -83.34057617 112.66552734 C-83.34101425 111.47413147 -83.34145233 110.2827356 -83.34190369 109.05523682 C-83.34018404 105.82023527 -83.32524249 102.58563399 -83.30418181 99.35071135 C-83.28530084 95.95816031 -83.28365565 92.56559962 -83.28010559 89.17300415 C-83.27081839 82.76297263 -83.24625023 76.35309643 -83.21605712 69.943133 C-83.18240888 62.63955541 -83.16600103 55.33597002 -83.15097082 48.03233409 C-83.11969722 33.02145557 -83.06472739 18.01077854 -83 3 C-91.58 3 -100.16 3 -109 3 C-109 2.67 -109 2.34 -109 2 C-99.76 1.67 -90.52 1.34 -81 1 C-80.98541748 4.5064917 -80.97083496 8.0129834 -80.95581055 11.62573242 C-80.90534817 23.24467674 -80.83888011 34.86349961 -80.76428509 46.4823103 C-80.71946975 53.5229409 -80.68002297 60.56352254 -80.65356445 67.60424805 C-80.6279885 74.4059938 -80.58698893 81.20751088 -80.53681374 88.00911903 C-80.5202004 90.59684826 -80.50865184 93.18461539 -80.50238609 95.77239037 C-80.49268486 99.41253742 -80.46455301 103.05213003 -80.43237305 106.69213867 C-80.43452568 108.27711151 -80.43452568 108.27711151 -80.4367218 109.894104 C-80.27713444 122.75896071 -77.57856593 136.43031303 -68.92578125 146.38671875 C-59.11680946 155.64789456 -48.70960424 157.57703011 -35.6328125 157.34375 C-29.40077019 157.03912879 -24.37644638 155.10877344 -19 152 C-17.86304688 151.34837891 -17.86304688 151.34837891 -16.703125 150.68359375 C-9.09362 145.66303688 -4.18293278 136.76314023 -2 128 C-0.97670231 121.34105908 -0.83010591 114.80622418 -0.79467773 108.07617188 C-0.78477814 106.9045752 -0.77487854 105.73297852 -0.76467896 104.52587891 C-0.73322349 100.67352279 -0.70836983 96.82115437 -0.68359375 92.96875 C-0.66301043 90.28975011 -0.64205956 87.61075561 -0.62062073 84.9317627 C-0.5708641 78.61384451 -0.52586268 72.29590189 -0.48259836 65.97793627 C-0.43307969 58.78076095 -0.37821619 51.58362942 -0.32291877 44.38649654 C-0.20936043 29.5910382 -0.10317066 14.79553475 0 0 Z " fill="#A9A9AD" transform="translate(335,34)"/>
<path d="M0 0 C3.59971139 1.73368453 5.23110655 2.80759732 7.5 6.2109375 C8.14519961 11.91020075 7.00086663 14.72545213 3.5 19.2109375 C4.304375 19.8296875 5.10875 20.4484375 5.9375 21.0859375 C8.49313576 23.20524521 9.32432534 23.9561185 9.7734375 27.1640625 C9.96525298 31.50204343 9.74487738 33.77647763 7.5625 37.6484375 C0.18284919 43.82324736 -6.90299237 42.01068814 -16.5 41.2109375 C-16.5 27.6809375 -16.5 14.1509375 -16.5 0.2109375 C-11.79422737 -2.14194882 -4.90786284 -1.54904421 0 0 Z " fill="#2C2829" transform="translate(742.5,246.7890625)"/>
<path d="M0 0 C0.886875 -0.00257813 1.77375 -0.00515625 2.6875 -0.0078125 C5 0.125 5 0.125 7 1.125 C7 2.445 7 3.765 7 5.125 C6.21753906 5.18558594 5.43507813 5.24617187 4.62890625 5.30859375 C3.11103516 5.43427734 3.11103516 5.43427734 1.5625 5.5625 C0.55316406 5.64371094 -0.45617187 5.72492188 -1.49609375 5.80859375 C-3.93640779 5.85711468 -3.93640779 5.85711468 -5 7.125 C-5.25005386 10.08317107 -5.25005386 10.08317107 -5 13.125 C-2.09328161 16.03171839 0.92142666 15.53131598 4.8125 15.5625 C5.88081055 15.61180664 5.88081055 15.61180664 6.97070312 15.66210938 C11.12992079 15.70443259 12.78406928 15.30620257 16.01171875 12.59765625 C16.66785156 11.78167969 17.32398438 10.96570313 18 10.125 C18 12.105 18 14.085 18 16.125 C20.64 16.125 23.28 16.125 26 16.125 C26 17.445 26 18.765 26 20.125 C23.36 20.125 20.72 20.125 18 20.125 C18.04640625 21.06601562 18.0928125 22.00703125 18.140625 22.9765625 C18.43291995 33.06073844 18.43291995 33.06073844 16.5 37.8125 C11.55272666 42.38872784 5.90763523 43.73026466 -0.7578125 43.4765625 C-5.7832268 42.68860555 -9.68079561 40.65033008 -13 36.8125 C-14.30920254 33.29401818 -14.45847589 30.85830364 -14 27.125 C-12.125 23.875 -12.125 23.875 -10 21.125 C-9.34 20.135 -8.68 19.145 -8 18.125 C-8.474375 17.67125 -8.94875 17.2175 -9.4375 16.75 C-11.74342584 14.35183713 -11.99186063 13.19689778 -12.375 9.8125 C-12 6.125 -12 6.125 -9.625 3.25 C-6.08679317 0.38573733 -4.4684966 -0.01298982 0 0 Z " fill="#2D2A2A" transform="translate(649,245.875)"/>
<path d="M0 0 C2.31 1.98 4.62 3.96 7 6 C9.02263641 7.38741247 11.05501197 8.76074587 13.09741211 10.11889648 C22.51846217 16.97940154 31.09153189 24.84044551 33.33184814 36.72491455 C35.33586075 51.79190133 34.40626111 67.18527094 33.71661377 82.31774902 C33.45786937 88.60487937 33.34607224 94.89459424 33.22070312 101.18554688 C32.95491497 113.46484488 32.51650941 125.72868988 32 138 C21.44 138 10.88 138 0 138 C0 92.46 0 46.92 0 0 Z M3 6 C3 48.57 3 91.14 3 135 C11.58 135 20.16 135 29 135 C29.27177465 121.77781468 29.49163365 108.55750208 29.62174606 95.33314896 C29.68421384 89.19157905 29.76884952 83.0520287 29.90527344 76.91162109 C30.03625469 70.9786388 30.10753146 65.04759078 30.13852692 59.11327362 C30.16059587 56.85651968 30.20369527 54.59986447 30.26876068 52.34394073 C31.05878116 38.33441378 31.05878116 38.33441378 24.86882401 26.39707565 C23.32097489 24.96895104 21.74343619 23.65789901 20.07208252 22.37762451 C16.7517158 19.80784156 14.59775522 17.27720988 12 14 C9.43802877 11.18643108 9.43802877 11.18643108 7 9 C6.34 9 5.68 9 5 9 C4.67 8.01 4.34 7.02 4 6 C3.67 6 3.34 6 3 6 Z " fill="#A9A9AB" transform="translate(694,84)"/>
<path d="M0 0 C1.98 0 3.96 0 6 0 C6 13.53 6 27.06 6 41 C0.82507677 43.58746161 -3.30667074 43.52884336 -9 43 C-13.75852474 41.356146 -16.19569483 39.15452617 -19 35 C-20.86080151 29.41759548 -20.93825348 23.94868031 -18.375 18.625 C-15.07728377 14.98015575 -12.48553094 12.23069299 -7.390625 11.7578125 C-4.92577079 11.75084964 -2.46127094 11.86695833 0 12 C0 8.04 0 4.08 0 0 Z " fill="#2D292A" transform="translate(1068,246)"/>
<path d="M0 0 C3.2655658 1.74020283 5.43947347 4.08277477 7.375 7.25 C8.8895525 13.91403101 8.42296379 19.15407242 5.36328125 25.2734375 C3.49193693 27.64344951 1.73630644 28.72124316 -1 30 C-5.04467926 30.38061599 -8.92552415 30.13432338 -13 30 C-13 34.29 -13 38.58 -13 43 C-14.65 43 -16.3 43 -18 43 C-18 29.14 -18 15.28 -18 1 C-16.35 1 -14.7 1 -13 1 C-12.67 1.66 -12.34 2.32 -12 3 C-11.505 2.505 -11.01 2.01 -10.5 1.5 C-7.02770624 -0.58337626 -3.89189617 -0.80083248 0 0 Z " fill="#282425" transform="translate(232,258)"/>
<path d="M0 0 C4.03694581 2.09955321 6.08984266 4.23405105 8.03515625 8.2734375 C8.84498957 14.10277821 8.83014315 19.50000519 6.41015625 24.8984375 C2.73681538 28.57177837 -0.2456877 30.05463582 -5.40234375 30.7109375 C-10.01955741 30.14391126 -12.16704998 28.97571383 -15.96484375 26.2734375 C-20.11767703 20.71696594 -19.7194096 14.93876917 -18.96484375 8.2734375 C-15.30779488 0.41755473 -8.36028022 -3.09147539 0 0 Z " fill="#2F2B2C" transform="translate(935.96484375,258.7265625)"/>
<path d="M0 0 C-4.20386152 6.73384742 -8.54302385 13.29606802 -13.25 19.6875 C-17.85521945 26.00288929 -22.36259901 32.37033207 -26.76904297 38.82568359 C-30.42943696 44.18418496 -34.14523098 49.50209488 -37.875 54.8125 C-44.66499212 64.48614542 -51.34958469 74.23000827 -58 84 C-61.50975054 82.56684791 -63.04651325 80.92578541 -65.12890625 77.7890625 C-65.68900391 76.95632812 -66.24910156 76.12359375 -66.82617188 75.265625 C-67.39916016 74.39421875 -67.97214844 73.5228125 -68.5625 72.625 C-69.70901058 70.90843667 -70.85612527 69.19227664 -72.00390625 67.4765625 C-72.50736572 66.71424316 -73.0108252 65.95192383 -73.52954102 65.16650391 C-74.96589325 62.96097685 -74.96589325 62.96097685 -76.74975586 60.97021484 C-78 59 -78 59 -77.86083984 57.01269531 C-76.87433903 54.7061971 -75.68657975 52.83896657 -74.2265625 50.796875 C-73.65478271 49.98984131 -73.08300293 49.18280762 -72.49389648 48.35131836 C-71.56879272 47.06366577 -71.56879272 47.06366577 -70.625 45.75 C-69.33668602 43.93398633 -68.04893166 42.11757553 -66.76171875 40.30078125 C-66.12153809 39.40053223 -65.48135742 38.5002832 -64.82177734 37.57275391 C-62.772711 34.67901749 -60.74847673 31.7700311 -58.75048828 28.84082031 C-57.86934677 27.56350919 -56.97018009 26.29846106 -56.05419922 25.04589844 C-53.4346397 21.40859529 -51.49527277 17.94298546 -49.80078125 13.78515625 C-40.48566783 -6.64449612 -19.21337658 -1.71709386 0 0 Z M-46.8125 13 C-48.48834745 16.00511848 -50.0579029 19.02812255 -51.55322266 22.12695312 C-53.65023131 26.29124571 -56.27550022 29.97936276 -59 33.75 C-59.87923849 35.02271601 -60.75568347 36.29736781 -61.62890625 37.57421875 C-63.70791399 40.58740618 -65.8198623 43.57631745 -67.9375 46.5625 C-70.54191054 50.26251593 -72.83977997 54.02519515 -75 58 C-70.09302808 65.06910642 -65.08250422 72.05611112 -60 79 C-55.29655853 74.68556497 -51.84996368 69.74871955 -48.25 64.5 C-47.63092773 63.60651855 -47.01185547 62.71303711 -46.37402344 61.79248047 C-44.57780767 59.19831059 -42.78807069 56.59978809 -41 54 C-39.41797594 51.70742502 -37.83403192 49.41618903 -36.25 47.125 C-35.54875 46.10921875 -34.8475 45.0934375 -34.125 44.046875 C-31.86193538 40.8020397 -29.5594781 37.58681142 -27.25 34.375 C-23.1127112 28.61349728 -19.07203262 22.78855528 -15.0625 16.9375 C-14.5065918 16.12780762 -13.95068359 15.31811523 -13.37792969 14.48388672 C-12.85231445 13.71447754 -12.32669922 12.94506836 -11.78515625 12.15234375 C-11.31988525 11.47163818 -10.85461426 10.79093262 -10.37524414 10.08959961 C-8.84603685 7.76606239 -7.41653513 5.39358182 -6 3 C-29.56788174 -0.56582325 -29.56788174 -0.56582325 -46.8125 13 Z " fill="#A9A8A9" transform="translate(1107,34)"/>
<path d="M0 0 C3.3737101 2.05056357 6.22043124 4.44086248 8 8 C8 10.97 8 13.94 8 17 C1.4 17 -5.2 17 -12 17 C-9.98848737 23.77489892 -9.98848737 23.77489892 -7 25 C-4.95944995 25.07065617 -2.91665743 25.08421976 -0.875 25.0625 C0.22070312 25.05347656 1.31640625 25.04445313 2.4453125 25.03515625 C3.28835938 25.02355469 4.13140625 25.01195312 5 25 C5.33 26.32 5.66 27.64 6 29 C1.53026793 31.97982138 -2.75924864 31.60816742 -8 31 C-12.46591022 28.80764407 -15.22135553 26.09545511 -18 22 C-18.98990122 16.18433034 -18.80807732 10.7358698 -16.3125 5.375 C-11.47624937 0.4080399 -6.90597664 -1.49668777 0 0 Z " fill="#312D2E" transform="translate(809,258)"/>
<path d="M0 0 C3.3737101 2.05056357 6.22043124 4.44086248 8 8 C8 10.97 8 13.94 8 17 C1.4 17 -5.2 17 -12 17 C-9.98848737 23.77489892 -9.98848737 23.77489892 -7 25 C-4.95944995 25.07065617 -2.91665743 25.08421976 -0.875 25.0625 C0.22070312 25.05347656 1.31640625 25.04445313 2.4453125 25.03515625 C3.28835938 25.02355469 4.13140625 25.01195312 5 25 C5.33 26.32 5.66 27.64 6 29 C1.53026793 31.97982138 -2.75924864 31.60816742 -8 31 C-12.46591022 28.80764407 -15.22135553 26.09545511 -18 22 C-18.98990122 16.18433034 -18.80807732 10.7358698 -16.3125 5.375 C-11.47624937 0.4080399 -6.90597664 -1.49668777 0 0 Z " fill="#312D2E" transform="translate(575,258)"/>
<path d="M0 0 C3.3737101 2.05056357 6.22043124 4.44086248 8 8 C8 10.97 8 13.94 8 17 C1.4 17 -5.2 17 -12 17 C-9.98848737 23.77489892 -9.98848737 23.77489892 -7 25 C-4.95944995 25.07065617 -2.91665743 25.08421976 -0.875 25.0625 C0.22070312 25.05347656 1.31640625 25.04445313 2.4453125 25.03515625 C3.28835938 25.02355469 4.13140625 25.01195312 5 25 C5.33 26.32 5.66 27.64 6 29 C1.53026793 31.97982138 -2.75924864 31.60816742 -8 31 C-12.46591022 28.80764407 -15.22135553 26.09545511 -18 22 C-18.98990122 16.18433034 -18.80807732 10.7358698 -16.3125 5.375 C-11.47624937 0.4080399 -6.90597664 -1.49668777 0 0 Z " fill="#312D2E" transform="translate(296,258)"/>
<path d="M0 0 C7.59 0 15.18 0 23 0 C23 1.65 23 3.3 23 5 C17.39 5 11.78 5 6 5 C6 8.96 6 12.92 6 17 C10.29 17 14.58 17 19 17 C19 18.65 19 20.3 19 22 C14.71 22 10.42 22 6 22 C6 26.62 6 31.24 6 36 C11.61 36 17.22 36 23 36 C23 37.65 23 39.3 23 41 C15.41 41 7.82 41 0 41 C0 27.47 0 13.94 0 0 Z " fill="#282425" transform="translate(89,247)"/>
<path d="M0 0 C1.98 0 3.96 0 6 0 C8.66666667 8 11.33333333 16 14 24 C14.5878125 22.2365625 14.5878125 22.2365625 15.1875 20.4375 C17.45833333 13.625 19.72916667 6.8125 22 0 C23.98 0 25.96 0 28 0 C27.22937255 4.67947272 25.71908037 9.02857606 24.1875 13.5 C22.29822292 19.05616652 20.50521548 24.61244209 18.875 30.25 C17.37398736 35.224067 15.72794975 39.27205025 12 43 C10.48071962 43.07179964 8.95832518 43.08392007 7.4375 43.0625 C6.61121094 43.05347656 5.78492188 43.04445313 4.93359375 43.03515625 C4.29550781 43.02355469 3.65742187 43.01195312 3 43 C3 41.68 3 40.36 3 39 C4.093125 38.835 5.18625 38.67 6.3125 38.5 C10.00544504 37.43130321 10.00544504 37.43130321 11.1328125 35.0859375 C11.86617724 33.07096447 12.49149172 31.0824625 13 29 C11.68 29 10.36 29 9 29 C7.86617359 25.85727971 6.7446156 22.71030814 5.625 19.5625 C5.30789063 18.68400391 4.99078125 17.80550781 4.6640625 16.90039062 C2.68372602 11.31006578 1.17127314 5.81495705 0 0 Z " fill="#302C2D" transform="translate(853,259)"/>
<path d="M0 0 C2.8100346 1.79363911 4.50940468 3.01880935 6 6 C6.08471364 7.81341842 6.10721083 9.62994161 6.09765625 11.4453125 C6.09443359 12.52167969 6.09121094 13.59804688 6.08789062 14.70703125 C6.07951172 15.83496094 6.07113281 16.96289062 6.0625 18.125 C6.05798828 19.26066406 6.05347656 20.39632813 6.04882812 21.56640625 C6.03701615 24.37765638 6.02054507 27.1888023 6 30 C4.35 30 2.7 30 1 30 C0.98018066 29.41508789 0.96036133 28.83017578 0.93994141 28.22753906 C0.84446519 25.56791975 0.73487858 22.90906162 0.625 20.25 C0.5940625 19.32960938 0.563125 18.40921875 0.53125 17.4609375 C0.49257813 16.57148438 0.45390625 15.68203125 0.4140625 14.765625 C0.36693115 13.54020996 0.36693115 13.54020996 0.31884766 12.29003906 C-0.02343693 9.83167042 -0.7739277 8.14240001 -2 6 C-4.83151973 5.58190799 -4.83151973 5.58190799 -8 6 C-11.31658372 8.93205227 -12.26310919 11.36183723 -12.609375 15.64453125 C-12.67535318 17.36656165 -12.72173202 19.08943797 -12.75 20.8125 C-12.77964844 21.69615234 -12.80929687 22.57980469 -12.83984375 23.49023438 C-12.9102039 25.65967218 -12.95740607 27.82983948 -13 30 C-14.65 30 -16.3 30 -18 30 C-18 20.43 -18 10.86 -18 1 C-16.35 1 -14.7 1 -13 1 C-12.67 1.66 -12.34 2.32 -12 3 C-11.505 2.505 -11.01 2.01 -10.5 1.5 C-7.05368668 -0.56778799 -3.87349363 -0.7147518 0 0 Z " fill="#272324" transform="translate(1002,258)"/>
<path d="M0 0 C9.24 0 18.48 0 28 0 C28 0.66 28 1.32 28 2 C19.42 2 10.84 2 2 2 C2.01047363 5.70395996 2.02094727 9.40791992 2.03173828 13.22412109 C2.06491431 25.47762179 2.08708622 37.73112182 2.10362434 49.98465538 C2.11391641 57.4121569 2.12793695 64.83961573 2.15087891 72.26708984 C2.17087639 78.74440307 2.18373147 85.22168537 2.18817699 91.69902861 C2.19077365 95.12552639 2.19683329 98.5519357 2.21146011 101.978405 C2.22602953 105.81296736 2.22797563 109.6473479 2.22705078 113.48193359 C2.23424133 114.60547241 2.24143188 115.72901123 2.24884033 116.88659668 C2.2316591 123.49268735 1.57789824 129.5806194 0 136 C-0.66 135.67 -1.32 135.34 -2 135 C-1.93019456 134.3524837 -1.86038912 133.7049674 -1.78846836 133.0378294 C-1.06267057 125.80092292 -0.83203888 118.63843553 -0.79467773 111.3684082 C-0.77982834 109.55183464 -0.77982834 109.55183464 -0.76467896 107.69856262 C-0.73871407 104.41420685 -0.71676207 101.12985523 -0.69667697 97.84545922 C-0.67462732 94.39948588 -0.64733259 90.95355393 -0.62062073 87.50761414 C-0.57094788 80.99854846 -0.52591613 74.4894595 -0.48259836 67.98034877 C-0.4330071 60.56303695 -0.37817102 53.14576671 -0.32291877 45.72849524 C-0.20948939 30.48570063 -0.10325931 15.24286741 0 0 Z " fill="#A7A7AA" transform="translate(457,35)"/>
<path d="M0 0 C0.66 0.33 1.32 0.66 2 1 C2 2.32 2 3.64 2 5 C-3.94 5.495 -3.94 5.495 -10 6 C-10 7.32 -10 8.64 -10 10 C-9.22914063 10.33773438 -8.45828125 10.67546875 -7.6640625 11.0234375 C-6.66117187 11.46945312 -5.65828125 11.91546875 -4.625 12.375 C-3.62726563 12.81585938 -2.62953125 13.25671875 -1.6015625 13.7109375 C1 15 1 15 3 17 C3.68431772 24.0712831 3.68431772 24.0712831 1.25 27.375 C-2.4031038 30.01335274 -5.00986696 31.27223598 -9.5625 31.1875 C-10.32691406 31.18105469 -11.09132813 31.17460937 -11.87890625 31.16796875 C-14 31 -14 31 -17 30 C-16.67 28.35 -16.34 26.7 -16 25 C-15.22914063 25.02320313 -14.45828125 25.04640625 -13.6640625 25.0703125 C-12.15972656 25.09738281 -12.15972656 25.09738281 -10.625 25.125 C-9.62726563 25.14820313 -8.62953125 25.17140625 -7.6015625 25.1953125 C-4.83737827 25.27216848 -4.83737827 25.27216848 -3 23 C-2.98388284 20.94232416 -2.98388284 20.94232416 -4 19 C-5.97491412 17.75408616 -5.97491412 17.75408616 -8.375 16.9375 C-11.57042799 15.72490273 -13.89199362 14.75764357 -16 12 C-16.86446204 5.19236143 -16.86446204 5.19236143 -14.1875 1.5 C-9.52797338 -0.69271841 -5.07213875 -0.49822941 0 0 Z " fill="#2F2B2C" transform="translate(515,258)"/>
<path d="M0 0 C0.76304634 10.63177898 0.76304634 10.63177898 -1.8125 15.25 C-6.41547569 17.77712391 -10.85444512 17.92021846 -16 17 C-18.30078125 15.7421875 -18.30078125 15.7421875 -20 14 C-20.89197901 10.90703381 -20.67957019 8.12931111 -20 5 C-15.15488496 -1.98266579 -7.79088474 -0.48026002 0 0 Z " fill="#F7F7F7" transform="translate(662,266)"/>
<path d="M0 0 C1.890625 0.30859375 1.890625 0.30859375 2.890625 1.30859375 C2.98922631 2.7120811 3.02141437 4.12039852 3.0234375 5.52734375 C3.02537109 6.80158203 3.02537109 6.80158203 3.02734375 8.1015625 C3.02347656 8.99488281 3.01960938 9.88820313 3.015625 10.80859375 C3.01949219 11.70191406 3.02335937 12.59523438 3.02734375 13.515625 C3.02605469 14.36511719 3.02476563 15.21460938 3.0234375 16.08984375 C3.02230957 16.87423828 3.02118164 17.65863281 3.02001953 18.46679688 C2.890625 20.30859375 2.890625 20.30859375 1.890625 21.30859375 C-2.76035145 21.98125563 -6.11930918 21.9147565 -10.171875 19.43359375 C-12.91568061 15.00810084 -13.08826513 11.38102441 -12.109375 6.30859375 C-9.71857093 0.50889202 -5.78870444 -0.31627028 0 0 Z " fill="#F3F3F3" transform="translate(1066.109375,262.69140625)"/>
<path d="M0 0 C3.5 0.625 3.5 0.625 5.9375 2.5625 C8.05115047 6.70525492 8.31017237 10.06076159 7.5 14.625 C4.57913669 20.26528777 4.57913669 20.26528777 0.5 21.625 C-3.125 21.75 -3.125 21.75 -6.5 21.625 C-8.46960372 19.65539628 -7.7746604 16.05404385 -7.8125 13.375 C-7.84150391 12.70597656 -7.87050781 12.03695313 -7.90039062 11.34765625 C-7.94611387 7.76717459 -7.57977446 5.75547711 -5.69921875 2.6796875 C-3.5 0.625 -3.5 0.625 0 0 Z " fill="#F4F3F4" transform="translate(226.5,262.375)"/>
<path d="M0 0 C2.61593153 1.83115207 2.96989455 2.90968366 4 6 C4.49746658 10.81156204 4.62603732 14.74792536 2.4375 19.125 C0 21 0 21 -3.5 21.625 C-7 21 -7 21 -9.4375 19.125 C-12.07320633 13.85358735 -11.72360079 8.53260275 -10.125 2.9375 C-7.80680882 -1.05494036 -4.20810614 -0.29530569 0 0 Z " fill="#FAFAFA" transform="translate(934,263)"/>
<path d="M0 0 C0 2.31 0 4.62 0 7 C2.64 7 5.28 7 8 7 C8 8.32 8 9.64 8 11 C5.36 11 2.72 11 0 11 C0.33 17.27 0.66 23.54 1 30 C3.31 30.66 5.62 31.32 8 32 C8 33.32 8 34.64 8 36 C6.58506449 36.10884119 5.16767057 36.18597617 3.75 36.25 C2.96109375 36.29640625 2.1721875 36.3428125 1.359375 36.390625 C-1 36 -1 36 -3.28125 34.65625 C-6.02029139 30.42318604 -5.42031252 26.16941153 -5.25 21.25 C-5.23195313 20.26644531 -5.21390625 19.28289062 -5.1953125 18.26953125 C-5.14824126 15.84536217 -5.08250742 13.42317941 -5 11 C-6.65 11 -8.3 11 -10 11 C-9.06558465 9.72689688 -8.12732889 8.456612 -7.1875 7.1875 C-6.66542969 6.47980469 -6.14335937 5.77210938 -5.60546875 5.04296875 C-1.64244742 0 -1.64244742 0 0 0 Z " fill="#252122" transform="translate(404,252)"/>
<path d="M0 0 C1.65 0 3.3 0 5 0 C5.33 0.66 5.66 1.32 6 2 C6.99 1.34 7.98 0.68 9 0 C12.1875 -0.125 12.1875 -0.125 15 0 C15 1.65 15 3.3 15 5 C13.329375 5.4021875 13.329375 5.4021875 11.625 5.8125 C7.78159049 6.65809019 7.78159049 6.65809019 6 10 C5.63566627 12.12337771 5.63566627 12.12337771 5.5859375 14.44921875 C5.54726563 15.29677734 5.50859375 16.14433594 5.46875 17.01757812 C5.42234375 18.33918945 5.42234375 18.33918945 5.375 19.6875 C5.33632813 20.58017578 5.29765625 21.47285156 5.2578125 22.39257812 C5.16359782 24.5948462 5.07798412 26.79710722 5 29 C3.35 29 1.7 29 0 29 C0 19.43 0 9.86 0 0 Z " fill="#282425" transform="translate(345,259)"/>
<path d="M0 0 C9.18762089 -0.48355899 9.18762089 -0.48355899 12.625 1.5625 C14.55866253 4.9903563 14.62199068 7.12983577 14 11 C12.0625 13.4375 12.0625 13.4375 9 15 C5.91524935 15.3146652 3.11635109 15.18605081 0 15 C0 10.05 0 5.1 0 0 Z " fill="#F7F7F7" transform="translate(732,269)"/>
<path d="M0 0 C3.3 0 6.6 0 10 0 C10 9.57 10 19.14 10 29 C8.02 29 6.04 29 4 29 C4 20.75 4 12.5 4 4 C2.68 4 1.36 4 0 4 C0 2.68 0 1.36 0 0 Z " fill="#353232" transform="translate(448,259)"/>
<path d="M0 0 C0.495 1.485 0.495 1.485 1 3 C-0.39355469 5.65698242 -0.39355469 5.65698242 -3 8 C-6.09358232 8.44541608 -8.62192345 8.58638004 -11.703125 8.48828125 C-12.95980988 8.47766914 -12.95980988 8.47766914 -14.24188232 8.46684265 C-16.91217147 8.43890066 -19.58034708 8.37616613 -22.25 8.3125 C-24.06246967 8.28741671 -25.87497228 8.26460359 -27.6875 8.24414062 C-32.12581171 8.18907504 -36.56254781 8.10280667 -41 8 C-39.265625 3.1640625 -39.265625 3.1640625 -36.875 1.6875 C-35.946875 1.3471875 -35.946875 1.3471875 -35 1 C-35 1.99 -35 2.98 -35 4 C-30.65780121 3.93103387 -26.31652726 3.84302621 -21.97509766 3.73754883 C-20.49896862 3.70434645 -19.02271406 3.67629983 -17.54638672 3.65356445 C-15.42100668 3.61993049 -13.29677196 3.56761481 -11.171875 3.51171875 C-9.8940918 3.48553467 -8.61630859 3.45935059 -7.29980469 3.43237305 C-3.8792607 2.98417954 -2.46979958 2.33651744 0 0 Z " fill="#A8A19E" transform="translate(977,214)"/>
<path d="M0 0 C1.98 0 3.96 0 6 0 C5.54363464 1.396478 5.08480512 2.7921508 4.625 4.1875 C4.36976563 4.96480469 4.11453125 5.74210937 3.8515625 6.54296875 C3 9 3 9 1.6875 11.3125 C0.64190338 15.39983224 2.5206922 18.25045653 4.375 21.8125 C4.71789062 22.50537109 5.06078125 23.19824219 5.4140625 23.91210938 C6.26015839 25.6160525 7.12799846 27.30916774 8 29 C6.02 29 4.04 29 2 29 C0.7947778 26.77890472 -0.38887404 24.5502135 -1.5625 22.3125 C-2.07586914 21.37374023 -2.07586914 21.37374023 -2.59960938 20.41601562 C-4.04962468 17.61851136 -5.03322884 15.55824457 -4.84375 12.375 C-3.92411934 9.78641 -2.98705806 7.22675338 -1.9375 4.6875 C-1.39416016 3.36298828 -1.39416016 3.36298828 -0.83984375 2.01171875 C-0.56269531 1.34785156 -0.28554687 0.68398438 0 0 Z " fill="#2E2A2B" transform="translate(167,259)"/>
<path d="M0 0 C1.98 0 3.96 0 6 0 C6.87042243 1.88842514 7.72075474 3.78611902 8.5625 5.6875 C9.03816406 6.74324219 9.51382813 7.79898437 10.00390625 8.88671875 C11.4796971 13.49928857 10.5499803 15.78577756 8.58984375 20.11328125 C8.04457031 21.16902344 7.49929687 22.22476562 6.9375 23.3125 C6.38964844 24.38113281 5.84179688 25.44976562 5.27734375 26.55078125 C4.85582031 27.35902344 4.43429688 28.16726563 4 29 C2.02 29 0.04 29 -2 29 C-1.20722656 27.58847656 -1.20722656 27.58847656 -0.3984375 26.1484375 C0.27709753 24.89119176 0.95151852 23.63334698 1.625 22.375 C1.975625 21.75753906 2.32625 21.14007813 2.6875 20.50390625 C4.40500509 17.24064658 5.1078507 15.49513277 4.3125 11.84375 C3.879375 10.9053125 3.44625 9.966875 3 9 C2 6 1 3 0 0 Z " fill="#2E2A2B" transform="translate(150,259)"/>
<path d="M0 0 C-2.98198149 5.43478641 -6.32893688 10.46332888 -9.9375 15.5 C-10.44990234 16.22058594 -10.96230469 16.94117187 -11.49023438 17.68359375 C-12.50303742 19.10692306 -13.51883833 20.52812463 -14.5378418 21.94702148 C-15.50283614 23.30194508 -16.45517673 24.66598199 -17.39379883 26.03930664 C-19.94176758 29.74082157 -21.53841755 31.85273594 -26 33 C-24.72118287 30.33253318 -23.3286091 27.89159979 -21.64453125 25.4609375 C-20.95713867 24.46513672 -20.95713867 24.46513672 -20.25585938 23.44921875 C-19.77955078 22.76472656 -19.30324219 22.08023438 -18.8125 21.375 C-18.35552734 20.71371094 -17.89855469 20.05242188 -17.42773438 19.37109375 C-13.6409145 13.89832495 -9.81651575 8.45216536 -6 3 C-20.85 2.505 -20.85 2.505 -36 2 C-36 1.67 -36 1.34 -36 1 C-31.67671027 0.85653897 -27.35338673 0.71415641 -23.0300293 0.57275391 C-21.5606186 0.52454468 -20.09121738 0.47604567 -18.62182617 0.42724609 C-16.50441907 0.35697657 -14.38697959 0.28776438 -12.26953125 0.21875 C-10.99698486 0.17685547 -9.72443848 0.13496094 -8.41333008 0.09179688 C-5.60615733 0.01630178 -2.80783527 -0.01876582 0 0 Z " fill="#A8A7A8" transform="translate(1106,35)"/>
<path d="M0 0 C3.69628969 -0.21742881 6.45781172 -0.20764658 9.9375 1.125 C12 3 12 3 12.5625 5.9375 C12 9 12 9 10.5 11.375 C6.86748926 13.73613198 4.28156703 13.2854378 0 13 C0 8.71 0 4.42 0 0 Z " fill="#FAFAFA" transform="translate(732,251)"/>
<path d="M0 0 C1.84688523 0.0502003 3.69390099 0.09582081 5.54101562 0.13671875 C10.0514132 0.24653749 14.55552078 0.41882529 19.0625 0.625 C19.0625 0.955 19.0625 1.285 19.0625 1.625 C14.60554804 2.50105831 10.47776059 2.68997413 5.94140625 2.58984375 C4.58008758 2.58381596 3.21875377 2.58064875 1.85742188 2.58007812 C-0.26202248 2.57835959 -2.37584366 2.56247444 -4.49438477 2.49829102 C-13.06213862 2.03749345 -13.06213862 2.03749345 -20.32861328 5.85205078 C-22.19425841 8.50357104 -22.19425841 8.50357104 -23.56274414 11.27954102 C-25.08970431 13.88467444 -26.15504803 14.58320773 -28.9375 15.625 C-28.28202963 13.95389832 -27.61269403 12.28823036 -26.9375 10.625 C-26.59904053 9.74924316 -26.26058105 8.87348633 -25.91186523 7.97119141 C-20.41688617 -2.66585088 -10.42841332 -0.49125047 0 0 Z " fill="#B0B0B3" transform="translate(1087.9375,33.375)"/>
<path d="M0 0 C2.59341352 0.07530783 3.80569388 0.16002137 6.0625 1.5 C7.0625 3.3125 7.0625 3.3125 7.0625 8.3125 C2.4425 8.3125 -2.1775 8.3125 -6.9375 8.3125 C-5.62650804 0.44654826 -5.62650804 0.44654826 0 0 Z " fill="#E9E9E9" transform="translate(803.9375,262.6875)"/>
<path d="M0 0 C2.59341352 0.07530783 3.80569388 0.16002137 6.0625 1.5 C7.0625 3.3125 7.0625 3.3125 7.0625 8.3125 C2.4425 8.3125 -2.1775 8.3125 -6.9375 8.3125 C-5.62650804 0.44654826 -5.62650804 0.44654826 0 0 Z " fill="#E9E9E9" transform="translate(569.9375,262.6875)"/>
<path d="M0 0 C2.59341352 0.07530783 3.80569388 0.16002137 6.0625 1.5 C7.0625 3.3125 7.0625 3.3125 7.0625 8.3125 C2.4425 8.3125 -2.1775 8.3125 -6.9375 8.3125 C-5.62650804 0.44654826 -5.62650804 0.44654826 0 0 Z " fill="#E9E9E9" transform="translate(290.9375,262.6875)"/>
<path d="M0 0 C-5.7820197 10.21490148 -5.7820197 10.21490148 -11 12 C-9.68197635 8.35008834 -8.40785992 6.2104799 -6 3 C-20.85 2.505 -20.85 2.505 -36 2 C-36 1.67 -36 1.34 -36 1 C-31.67671027 0.85653897 -27.35338673 0.71415641 -23.0300293 0.57275391 C-21.5606186 0.52454468 -20.09121738 0.47604567 -18.62182617 0.42724609 C-16.50441907 0.35697657 -14.38697959 0.28776438 -12.26953125 0.21875 C-10.99698486 0.17685547 -9.72443848 0.13496094 -8.41333008 0.09179688 C-5.60615733 0.01630178 -2.80783527 -0.01876582 0 0 Z " fill="#A5A0A1" transform="translate(1106,35)"/>
<path d="M0 0 C1.15757812 -0.00257813 2.31515625 -0.00515625 3.5078125 -0.0078125 C4.72210938 -0.00007812 5.93640625 0.00765625 7.1875 0.015625 C8.40179688 0.00789062 9.61609375 0.00015625 10.8671875 -0.0078125 C12.60355469 -0.00394531 12.60355469 -0.00394531 14.375 0 C15.44105469 0.00225586 16.50710938 0.00451172 17.60546875 0.00683594 C20.1875 0.265625 20.1875 0.265625 22.1875 2.265625 C11.67175635 4.5047187 2.62344851 5.08887677 -7.8125 2.265625 C-5.12762835 -0.41924665 -3.74773019 0.00793051 0 0 Z " fill="#A99CA2" transform="translate(287.8125,190.734375)"/>
<path d="M0 0 C0.97259766 -0.00257813 1.94519531 -0.00515625 2.94726562 -0.0078125 C3.96626953 -0.00007812 4.98527344 0.00765625 6.03515625 0.015625 C7.05029297 0.00789062 8.06542969 0.00015625 9.11132812 -0.0078125 C10.08521484 -0.00523437 11.05910156 -0.00265625 12.0625 0 C12.95573975 0.00225586 13.84897949 0.00451172 14.76928711 0.00683594 C17.09765625 0.265625 17.09765625 0.265625 20.09765625 2.265625 C11.30147434 3.67301411 1.81895672 4.33508613 -6.90234375 2.265625 C-4.3779468 -0.25877195 -3.49177556 0.00882956 0 0 Z " fill="#A793A0" transform="translate(122.90234375,191.734375)"/>
<path d="M0 0 C-1 2 -1 2 -2.7421875 2.6171875 C-5.24118231 3.0408925 -7.59068405 3.13256512 -10.125 3.125 C-11.42824219 3.12886719 -11.42824219 3.12886719 -12.7578125 3.1328125 C-15 3 -15 3 -17 2 C-17 1.34 -17 0.68 -17 0 C-14.72979256 -0.19493195 -12.45879711 -0.38070418 -10.1875 -0.5625 C-8.92292969 -0.66691406 -7.65835937 -0.77132812 -6.35546875 -0.87890625 C-3 -1 -3 -1 0 0 Z " fill="#AA9FA1" transform="translate(435,192)"/>
<path d="M0 0 C0.66 0.33 1.32 0.66 2 1 C1.84660156 1.97066406 1.69320312 2.94132812 1.53515625 3.94140625 C0.91790015 8.26219894 0.66519605 12.58141318 0.4375 16.9375 C0.39431641 17.71673828 0.35113281 18.49597656 0.30664062 19.29882812 C0.20171923 21.19907117 0.1004755 23.09951669 0 25 C-0.33 25 -0.66 25 -1 25 C-3.0528026 7.44120634 -3.0528026 7.44120634 0 0 Z " fill="#AA9BA7" transform="translate(64,68)"/>
<path d="M0 0 C1.03125 0.04833984 2.0625 0.09667969 3.125 0.14648438 C4.74535156 0.2305957 4.74535156 0.2305957 6.3984375 0.31640625 C7.48640625 0.36861328 8.574375 0.42082031 9.6953125 0.47460938 C12.3882956 0.604534 15.08093086 0.73950787 17.7734375 0.87890625 C17.7734375 1.20890625 17.7734375 1.53890625 17.7734375 1.87890625 C5.3984375 2.37390625 5.3984375 2.37390625 -7.2265625 2.87890625 C-7.2265625 2.21890625 -7.2265625 1.55890625 -7.2265625 0.87890625 C-4.62765096 -0.42054952 -2.89989594 -0.14340145 0 0 Z " fill="#A793A0" transform="translate(119.2265625,33.12109375)"/>
<path d="M0 0 C1.98 0 3.96 0 6 0 C6 1.98 6 3.96 6 6 C4.02 6 2.04 6 0 6 C0 4.02 0 2.04 0 0 Z " fill="#2E2B2B" transform="translate(451,246)"/>
<path d="M0 0 C-2.89748368 3.02918748 -4.15881734 3.95493664 -8.5 4.1875 C-12 4 -12 4 -14 2 C-12.04396149 1.47061343 -10.08507711 0.95173199 -8.125 0.4375 C-7.03445312 0.14746094 -5.94390625 -0.14257812 -4.8203125 -0.44140625 C-2 -1 -2 -1 0 0 Z " fill="#B0AEB2" transform="translate(152,189)"/>
<path d="M0 0 C0.66 0.33 1.32 0.66 2 1 C-1.07999946 4.67230705 -3.2482602 5.56802365 -8 6 C-7 3 -7 3 -3.5625 1.25 C-2.386875 0.8375 -1.21125 0.425 0 0 Z " fill="#AEAEB0" transform="translate(442,187)"/>
<path d="M0 0 C3.3 0.33 6.6 0.66 10 1 C9.67 1.66 9.34 2.32 9 3 C6.03 2.67 3.06 2.34 0 2 C0 1.34 0 0.68 0 0 Z " fill="#ADAFB1" transform="translate(109,190)"/>
<path d="M0 0 C2.31 0 4.62 0 7 0 C7.33 0.99 7.66 1.98 8 3 C5.36 2.67 2.72 2.34 0 2 C0 1.34 0 0.68 0 0 Z " fill="#A79DA5" transform="translate(138,33)"/>
</svg>
